<svg width="200" height="200" viewBox="0 0 200 200" fill="none" xmlns="http://www.w3.org/2000/svg">
<path d="M77.4094 80.9939C77.1563 79.8117 77.7469 77.5014 77.9013 76.1899C78.1124 74.3953 78.4121 72.5566 78.6444 70.7581C78.755 69.9015 79.0492 69.4481 79.8625 69.0875C82.9238 67.772 85.8053 66.459 88.8392 65.0476C94.875 62.2396 102.188 63.996 108.505 64.8654C110.74 65.173 117.099 66.2889 118.492 67.7699C119.328 69.1384 120.124 70.5306 120.879 71.9447C122.207 74.3816 123.54 76.3703 122.945 79.335C122.828 79.9173 122.625 80.3553 122.149 80.7293C121.503 81.3358 120.967 81.6865 120.217 82.163L119.704 83.5456L120.153 83.697C120.734 83.7354 121.023 83.7659 121.608 83.8763C123.6 84.0383 125.586 84.2712 127.562 84.5744C128.004 84.7223 128.177 84.7519 128.546 85.0189C129.608 87.1919 131.01 90.2509 131.756 92.589C131.964 93.2421 131.047 95.2391 130.713 95.9842C129.404 98.4325 129.197 98.5701 126.923 100.222C127.281 100.379 127.784 100.619 128.14 100.737C129.221 101.124 132.8 102.51 133.777 103.029C134.714 103.336 136.817 104.205 137.533 104.828C138.345 106.443 138.912 108.996 139.421 110.782C139.89 112.431 140.417 114.14 140.861 115.788L141.008 116.175L141.085 116.192C142.471 116.375 146.874 117.869 147.578 118.964C148.065 120.229 150.095 126.702 149.997 127.815C149.548 128.474 146.802 128.792 145.959 128.821C144.278 128.817 142.825 128.434 141.138 128.447C140.902 128.191 140.285 126.56 139.854 126.211C139.203 124.992 138.167 122.985 137.412 121.905C136.407 120.967 130.392 119.997 128.865 119.988C126.063 120.246 124.454 120.715 121.82 121.604C120.739 122.101 117.043 123.142 116.601 123.877C115.933 124.872 115.573 125.668 115.013 126.707C113.055 127.363 111.098 127.99 109.123 128.593C108.519 128.777 107.996 128.921 107.662 129.488C107.521 129.913 106.98 131.67 106.804 131.931C106.207 131.693 104.551 131.904 103.845 131.863C101.346 131.717 92.7295 132.211 91.272 129.964L91.0215 129.734C90.9 129.897 90.825 130.012 90.7176 130.184C90.2699 130.627 89.9285 130.891 89.3794 131.203C87.6371 132.087 86.4866 132.127 84.5248 132.122C83.4466 132.103 82.3688 132.07 81.2913 132.026C80.8278 131.953 80.518 131.97 80.0568 131.976C77.8961 131.974 75.6964 132.111 73.651 131.386C72.8643 131.137 71.5343 130.809 70.9409 130.241C70.6862 129.996 70.7756 129.672 70.7858 129.296L70.556 129.156C69.4714 129.33 68.4449 129.284 67.3598 129.41C66.0887 129.553 64.8797 129.268 63.5196 129.449C62.1025 129.636 58.5848 130.965 57.3353 130.771C56.181 130.634 50.854 129.144 49.8164 128.673C50.35 126.964 51.4949 124.539 52.2875 122.904C53.2006 122.212 55.0242 121.504 56.2178 121.587L56.4731 121.52C56.6905 121.013 56.8405 119.284 56.97 118.598C57.3268 116.705 57.5743 114.297 58.0791 112.469C58.1725 111.96 58.336 111.36 58.4614 110.848L58.755 111.141L58.872 110.735C59.4728 110.128 62.0447 110.485 63.1592 110.423L63.3072 110.415L64.0703 110.155C65.6561 109.452 67.893 108.434 69.4141 107.62L69.5639 107.55C70.3306 107.184 71.0203 106.848 71.7655 106.442C71.289 105.583 70.6543 104.935 70.1785 103.985L69.9635 103.63L70.1513 103.344L69.8815 102.945C69.7676 102.345 69.9323 94.8843 70.0434 94.0094C70.0262 93.1752 69.9697 90.9589 70.8797 90.5489C73.7523 89.2545 76.6822 88.0379 79.5758 86.7693L81.3887 85.7711L81.7088 85.5774C80.1424 85.0501 79.4435 84.3809 78.5471 83.0461C78.0151 82.5409 77.4064 81.7632 77.4094 80.9939Z" fill="#373737"/>
<path d="M77.4091 80.9939C77.156 79.8117 77.7466 77.5014 77.901 76.1899C78.1121 74.3953 78.4119 72.5566 78.6442 70.7581C78.7548 69.9015 79.0489 69.4481 79.8622 69.0875C82.9236 67.772 85.8051 66.459 88.8389 65.0476C94.8747 62.2396 102.187 63.996 108.505 64.8654C110.74 65.173 117.098 66.2889 118.492 67.7699C119.327 69.1384 120.124 70.5306 120.879 71.9447C122.207 74.3816 123.54 76.3703 122.945 79.335C122.828 79.9173 122.625 80.3553 122.149 80.7293C121.503 81.3358 120.966 81.6865 120.216 82.163L119.704 83.5456L120.153 83.697C120.734 83.7354 121.023 83.7659 121.608 83.8763C123.6 84.0383 125.586 84.2712 127.562 84.5744C128.003 84.7223 128.177 84.7519 128.546 85.0189C129.608 87.1919 131.009 90.2509 131.755 92.589C131.963 93.2421 131.047 95.2391 130.713 95.9842C129.329 96.026 129.193 97.2817 128.327 97.6945C127.433 97.7445 126.057 95.4715 125.578 94.7261C125.784 95.8537 126.31 97.9697 125.662 98.9503C124.597 99.677 118.514 101.981 117.166 102.153C116.091 102.289 112.792 101.996 111.445 102.251C109.359 102.645 107.25 103.341 105.221 103.947C103.547 104.385 100.011 105.563 98.5116 105.66C98.1644 105.48 96.1752 105.833 95.6398 105.832C91.7234 105.826 88.7509 105.473 84.8869 106.416C81.9274 107.14 77.195 106.346 74.2801 105.663C73.4583 105.471 70.6581 103.952 70.1782 103.985L69.9633 103.63L70.151 103.344L69.8812 102.945C69.7674 102.345 69.9321 94.8843 70.0432 94.0094C70.0259 93.1752 69.9695 90.9589 70.8795 90.5489C73.7521 89.2545 76.682 88.0379 79.5756 86.7693L81.3885 85.7711L81.7085 85.5774C80.1421 85.0501 79.4433 84.3809 78.5468 83.0461C78.0149 82.5409 77.4062 81.7632 77.4091 80.9939Z" fill="#6C6C6C"/>
<path d="M77.4089 80.9939C77.1558 79.8117 77.7464 77.5014 77.9008 76.1899C78.1119 74.3953 78.4117 72.5566 78.644 70.7581C78.7545 69.9015 79.0487 69.4481 79.862 69.0875C82.9234 67.772 85.8048 66.459 88.8387 65.0476C94.8745 62.2396 102.187 63.996 108.505 64.8654C110.74 65.173 117.098 66.2889 118.491 67.7699C119.327 69.1384 120.123 70.5306 120.879 71.9447C122.207 74.3816 123.54 76.3703 122.945 79.335C122.827 79.9173 122.625 80.3553 122.149 80.7293C121.586 80.862 120.977 81.0073 120.459 81.2769C119.933 81.499 119 81.9233 118.486 82.0573C117.799 82.3003 115.662 82.9465 115.124 83.2603C114.348 83.4377 112.713 83.8296 111.985 83.8589C111.56 83.705 106.428 83.7253 105.629 83.7155C103.956 83.7271 101.729 84.0383 99.9794 84.1407C98.8441 84.2073 95.8158 84.0944 94.9494 84.227C92.3994 84.1308 89.7586 84.2174 87.2067 84.0845C86.0447 83.9602 84.8458 83.941 83.6757 83.8236C81.9464 83.6502 80.2525 83.3703 78.5466 83.0461C78.0147 82.5409 77.406 81.7632 77.4089 80.9939Z" fill="#8B8B8A"/>
<path d="M118.492 67.7698C119.328 69.1384 120.124 70.5305 120.879 71.9446C122.207 74.3815 123.54 76.3702 122.945 79.3349C122.828 79.9172 122.625 80.3552 122.149 80.7292C121.586 80.8619 120.978 81.0072 120.459 81.2768C119.933 81.4989 119.001 81.9232 118.487 82.0572C117.8 82.3002 115.662 82.9464 115.124 83.2602C114.349 83.4376 112.714 83.8295 111.986 83.8588C111.561 83.7049 106.429 83.7252 105.63 83.7154L105.778 83.6101C105.956 83.2021 105.914 81.6639 105.875 81.1678C105.734 79.3365 105.968 78.1318 104.575 76.8243C102.984 77.4782 101.274 77.2646 99.6436 76.9148C102.788 76.599 103.041 76.719 105.542 74.9516C105.726 73.879 105.509 72.4329 105.669 71.2723C106.003 71.1627 106.242 71.142 106.586 71.0948C109.356 71.0366 111.796 70.1982 114.351 69.2775C115.818 68.7484 117.051 68.5457 118.492 67.7698Z" fill="#6C6C6C"/>
<path d="M105.542 74.9514C107.931 74.9886 108.093 75.8981 111.065 75.4582C110.744 75.5874 109.995 75.8932 109.688 75.9298C107.732 76.1636 106.416 75.6909 104.575 76.8241C102.984 77.4781 101.274 77.2644 99.6436 76.9146C102.788 76.5989 103.041 76.7188 105.542 74.9514Z" fill="#484848"/>
<path d="M118.486 82.0572C118.409 79.5833 118.173 78.5698 117.277 76.345C118.757 78.2498 118.523 79.2764 120.458 81.2768C119.933 81.4989 119 81.9231 118.486 82.0572Z" fill="#484848"/>
<path d="M77.4089 80.9939C77.1558 79.8117 77.7464 77.5014 77.9008 76.1899C78.1119 74.3953 78.4117 72.5566 78.644 70.7581C78.7545 69.9015 79.0487 69.4481 79.862 69.0875C82.9234 67.772 85.8048 66.459 88.8387 65.0476C94.8745 62.2396 102.187 63.996 108.505 64.8654C110.74 65.173 117.098 66.2889 118.491 67.7699C117.05 68.5458 115.818 68.7485 114.35 69.2776C111.796 70.1983 109.356 71.0367 106.585 71.0949C102.695 71.1463 99.0577 70.803 95.1986 70.6225C91.296 70.434 87.3868 70.4211 83.4829 70.5839C82.8299 70.6116 80.2954 70.6654 79.945 71.0716C79.0477 72.1119 78.083 80.5068 77.4089 80.9939Z" fill="#BAB9B9"/>
<path d="M109.643 67.1904C109.983 67.072 112.594 66.7067 113.103 66.6701C113.355 66.652 114.208 66.9106 114.511 67.0095L115.249 67.5859C114.381 68.1729 113.458 68.4276 112.524 68.8486C110.227 69.8842 107.751 69.9605 105.238 69.9615C105.181 69.4393 104.973 68.0627 105.067 67.6388C105.665 67.1681 108.754 67.2142 109.643 67.1904Z" fill="#8B8B8A"/>
<path d="M109.643 67.1904C109.983 67.072 112.593 66.7067 113.103 66.6701C113.355 66.652 114.208 66.9106 114.511 67.0095C112.882 67.0102 111.21 67.2191 109.643 67.1904Z" fill="#A6A5A5"/>
<path d="M95.1046 63.9973C96.1285 63.97 97.8192 64.0138 98.9108 64.01C98.4995 64.0683 97.7996 64.0426 97.3624 64.0403C97.8661 64.2589 98.3655 64.4872 98.8604 64.7251C99.3045 64.5793 99.4553 64.4895 99.8253 64.6664L99.8926 64.9063C99.4991 65.9659 97.6838 66.1435 96.6867 66.3596C96.5801 66.3423 94.8689 66.915 94.6804 66.9834C93.9083 67.2637 93.6317 67.2146 92.8332 67.1433C89.2794 64.8425 93.1989 64.2862 95.1046 63.9973Z" fill="#A6A5A5"/>
<path d="M92.6363 72.3116C93.3691 72.2786 98.0688 72.5818 98.6583 72.7536C98.2145 72.8942 97.0137 72.7606 96.5103 72.7841C96.1746 72.7997 95.7402 72.9003 95.4073 72.9708C93.4635 73.0135 92.4865 73.639 91.2562 75.0628L91.1416 75.0689C91.1996 74.6067 92.282 72.6517 92.6363 72.3116Z" fill="#6C6C6C"/>
<path d="M120.459 81.2769C120.978 81.0072 121.586 80.862 122.149 80.7292C121.503 81.3357 120.967 81.6864 120.216 82.163L119.704 83.5456L120.153 83.697C120.734 83.7354 121.023 83.7659 121.608 83.8762C123.6 84.0382 125.586 84.2711 127.562 84.5743C127.537 85.4547 127.547 85.781 126.847 86.3769C126.324 86.6846 123.386 88.0114 123.26 88.1908L123.354 88.2913L122.377 88.6705C120.609 89.0515 118.467 89.4948 116.739 89.9799C116.057 90.1716 114.414 91.1126 113.593 91.4421C107.903 91.8436 102.124 91.5267 96.4218 91.5314C95.0956 91.5325 93.9255 92.3634 92.5964 92.3092C88.9191 91.8331 85.6844 91.4463 81.988 92.208C81.3628 92.3368 79.6744 92.609 79.0316 92.5748C78.1654 92.3743 76.4044 92.4068 75.4538 92.3956C74.9875 92.6317 74.9123 92.5872 74.3778 92.611L74.171 92.6217L74.0469 92.6267L73.9575 92.7108C72.5368 92.7198 71.761 92.5675 70.353 92.2895C70.4003 93.1554 70.4776 93.6946 70.6209 94.5548L70.5074 94.7353C70.381 94.1796 70.2477 93.689 70.2325 93.1158C70.142 93.4612 70.1478 94.5504 70.14 94.9717C70.0861 94.6659 70.0686 94.3214 70.0434 94.0093C70.0262 93.1752 69.9697 90.9588 70.8797 90.5489C73.7523 89.2544 76.6822 88.0378 79.5758 86.7692L81.3887 85.7711L81.7087 85.5774C80.1423 85.05 79.4435 84.3809 78.5471 83.046C80.2529 83.3703 81.9468 83.6502 83.6761 83.8235C84.8463 83.941 86.0451 83.9601 87.2072 84.0845C89.759 84.2174 92.3999 84.1308 94.9499 84.227C95.8163 84.0944 98.8445 84.2072 99.9799 84.1406C101.729 84.0382 103.956 83.727 105.63 83.7154C106.429 83.7253 111.561 83.7049 111.986 83.8588C112.714 83.8296 114.349 83.4377 115.124 83.2603C115.662 82.9465 117.8 82.3002 118.487 82.0573C119 81.9232 119.933 81.499 120.459 81.2769Z" fill="#A6A5A5"/>
<path d="M120.459 81.2769C120.978 81.0072 121.586 80.862 122.149 80.7292C121.503 81.3357 120.966 81.6864 120.216 82.163L119.704 83.5456C117.818 84.1988 114.932 85.2998 113.056 85.6812C111.317 86.0346 108.054 86.0837 106.216 86.1448C100.651 86.3543 95.0797 86.3395 89.5157 86.1006C88.2106 86.0464 86.907 85.9592 85.6063 85.8394C84.5685 85.7399 82.6596 85.4238 81.7085 85.5774C80.1421 85.05 79.4433 84.3809 78.5469 83.046C80.2527 83.3703 81.9467 83.6502 83.6759 83.8235C84.8461 83.941 86.0449 83.9601 87.207 84.0845C89.7589 84.2174 92.3997 84.1308 94.9497 84.227C95.8161 84.0944 98.8443 84.2072 99.9797 84.1406C101.729 84.0382 103.956 83.727 105.63 83.7154C106.429 83.7253 111.561 83.7049 111.986 83.8588C112.713 83.8296 114.348 83.4377 115.124 83.2603C115.662 82.9465 117.8 82.3002 118.487 82.0573C119 81.9232 119.933 81.499 120.459 81.2769Z" fill="#373737"/>
<path d="M87.2073 84.0845C89.7592 84.2174 92.4 84.1307 94.95 84.227C94.0042 84.4918 87.5851 84.5317 86.5381 84.2764L86.5993 84.1881L87.2073 84.0845Z" fill="#1D1D1D"/>
<path d="M115.124 83.26C114.855 83.9609 112.683 84.051 111.985 83.8585C112.713 83.8293 114.348 83.4374 115.124 83.26Z" fill="#1D1D1D"/>
<path d="M81.7081 85.5775C82.6592 85.4239 84.5681 85.7399 85.6059 85.8394C86.9066 85.9593 88.2102 86.0464 89.5152 86.1007C95.0792 86.3396 100.651 86.3544 106.215 86.1449C108.054 86.0837 111.317 86.0347 113.055 85.6812C114.932 85.2998 117.818 84.1989 119.703 83.5457L120.153 83.697C120.734 83.7354 121.022 83.7659 121.607 83.8763C121.375 84.0063 121.337 84.058 121.163 84.2361C120.412 85.0009 119.577 85.4341 118.599 85.852C117.196 86.4519 115.761 86.9737 114.265 87.307C113.317 87.5181 112.297 87.5847 111.352 87.7773C109.904 87.9821 106.462 88.021 104.864 88.0685C98.745 88.2757 92.6194 88.1692 86.5112 87.7496C84.4621 87.6039 82.408 87.21 80.5059 87.0787L80.4094 87.0726L79.5752 86.7693L81.3881 85.7711L81.7081 85.5775Z" fill="#373737"/>
<path d="M81.7087 85.5775C82.6598 85.4239 84.5687 85.7399 85.6065 85.8394C86.9072 85.9593 88.2108 86.0464 89.5158 86.1007C95.0798 86.3396 100.652 86.3544 106.216 86.1449C108.055 86.0837 111.317 86.0347 113.056 85.6812C114.933 85.2998 117.818 84.1989 119.704 83.5457L120.153 83.697C116.632 86.7637 109.541 86.7966 105.063 86.9227C99.2174 87.1256 93.3661 87.0418 87.5291 86.6712C85.9076 86.559 82.8382 86.3195 81.3887 85.7711L81.7087 85.5775Z" fill="#1D1D1D"/>
<path d="M121.608 83.8762C123.601 84.0382 125.587 84.2711 127.563 84.5743C127.537 85.4547 127.548 85.7809 126.847 86.3769C126.325 86.6846 123.387 88.0114 123.261 88.1908L123.354 88.2913L122.378 88.6705C121.309 88.0187 115.274 90.0889 113.915 90.6418C113.08 89.7317 112.209 88.6077 111.354 87.7772C112.298 87.5846 113.319 87.518 114.267 87.3069C115.762 86.9736 117.197 86.4518 118.601 85.8519C119.578 85.434 120.413 85.0008 121.164 84.236C121.338 84.058 121.376 84.0062 121.608 83.8762Z" fill="#8B8B8A"/>
<path d="M79.5758 86.769L80.41 87.0724C80.0235 87.4511 79.1941 87.6797 78.696 87.9379C77.0558 88.7884 73.0358 90.3273 71.7852 91.4901C73.0752 92.2714 73.9391 92.3863 75.4538 92.3954C74.9875 92.6315 74.9123 92.587 74.3778 92.6108L74.171 92.6215L74.0469 92.6265L73.9575 92.7106C72.5368 92.7196 71.761 92.5673 70.353 92.2893C70.4003 93.1552 70.4776 93.6944 70.6209 94.5546L70.5074 94.7352C70.381 94.1794 70.2477 93.6888 70.2325 93.1156C70.142 93.461 70.1478 94.5502 70.14 94.9715C70.0861 94.6657 70.0686 94.3212 70.0434 94.0091C70.0262 93.175 69.9697 90.9587 70.8797 90.5487C73.7523 89.2542 76.6822 88.0376 79.5758 86.769Z" fill="#CDCCCD"/>
<path d="M92.5378 91.204C92.8474 91.1339 93.9187 91.0979 94.22 91.2625C93.9111 91.4365 93.5789 91.4226 93.2167 91.4518C92.6124 91.4533 92.0825 91.4783 91.4854 91.3772C91.7732 91.239 92.2043 91.2327 92.5378 91.204Z" fill="#6C6C6C"/>
<path d="M94.1351 90.2625C94.608 90.2429 95.096 90.2498 95.5486 90.387L95.4405 90.462C95.0071 90.4695 94.2722 90.5199 93.8857 90.4023L94.1351 90.2625Z" fill="#6C6C6C"/>
<path d="M127.562 84.5742C128.003 84.7221 128.176 84.7518 128.545 85.0187C129.607 87.1917 131.009 90.2507 131.755 92.5888C131.963 93.2419 131.047 95.2389 130.712 95.984C129.328 96.0258 129.193 97.2816 128.326 97.6944C127.432 97.7443 126.056 95.4713 125.577 94.7259C125.783 95.8536 126.31 97.9696 125.662 98.9501C124.597 99.6769 118.514 101.98 117.165 102.153C116.091 102.289 112.792 101.996 111.445 102.251C109.359 102.645 107.25 103.341 105.22 103.947C103.547 104.385 100.011 105.563 98.5112 105.66C98.1641 105.48 96.1749 105.833 95.6394 105.832C91.723 105.826 88.7505 105.472 84.8865 106.416C81.927 107.14 77.1946 106.346 74.2797 105.663C73.458 105.47 70.6577 103.952 70.1779 103.985L69.9629 103.63L70.1506 103.344C70.1345 103.348 75.0654 104.672 75.9153 104.748C79.245 105.041 83.6251 105.388 86.846 104.537C87.0328 103.675 87.3996 101.164 88.2499 100.906C88.1506 101.538 88.2699 101.839 88.4306 102.462C88.4878 102.798 88.7278 103.665 88.9814 103.819C89.925 104.393 93.1025 104.384 94.2267 104.404C96.1879 104.44 99.221 104.39 100.949 103.682C101.674 103.267 102.349 102.417 103.204 102.282C105.827 101.872 109.951 102.129 111.989 100.144C112.672 98.1225 112.592 93.1036 113.593 91.442C114.413 91.1124 116.056 90.1714 116.738 89.9798C118.467 89.4946 120.608 89.0514 122.377 88.6704L123.353 88.2912L123.259 88.1907C123.386 88.0113 126.323 86.6845 126.846 86.3768C127.546 85.7808 127.536 85.4546 127.562 84.5742Z" fill="#484848"/>
<path d="M126.847 86.377L127.222 86.528C126.059 87.2208 124.672 87.9543 123.354 88.2913L123.26 88.1908C123.386 88.0115 126.324 86.6847 126.847 86.377Z" fill="#BCBBBB"/>
<path d="M127.562 84.5742C128.004 84.7221 128.177 84.7518 128.546 85.0187C128.149 85.8175 127.959 86.0223 127.222 86.5279L126.847 86.3768C127.547 85.7808 127.537 85.4546 127.562 84.5742Z" fill="#A6A5A5"/>
<path d="M123.301 88.7605C124.905 89.7235 124.948 91.2497 124.973 92.9986L124.816 93.0372C124.594 92.7814 123.061 89.1636 123.055 88.987L123.301 88.7605Z" fill="#373737"/>
<path d="M70.0432 94.0095C70.0683 94.3216 70.0859 94.6661 70.1398 94.9719C70.1475 94.5505 70.1417 93.4613 70.2322 93.116C70.2474 93.6891 70.3807 94.1798 70.5071 94.7355L70.6207 94.555C70.9372 95.8436 70.9876 97.3246 71.046 98.6517C71.1151 100.225 71.1826 101.847 69.8812 102.945C69.7674 102.346 69.9321 94.8844 70.0432 94.0095Z" fill="#BCBBBB"/>
<path d="M92.5166 97.5405C91.9831 98.0308 91.2241 98.674 90.7823 99.3987C90.2837 100.216 89.9776 102.03 89.5404 102.935C89.4575 102.957 89.3745 102.979 89.2916 103.002C88.8906 102.917 88.7544 102.741 88.4309 102.462C88.2701 101.839 88.1508 101.538 88.2502 100.906C89.4436 100.369 90.1651 98.5547 92.5166 97.5405Z" fill="#BCBBBB"/>
<path d="M75.4523 92.3955C76.4029 92.4067 78.164 92.3742 79.0302 92.5747C78.1068 92.6468 74.687 92.9184 73.9561 92.7107L74.0454 92.6266L74.1696 92.6216L74.3764 92.6109C74.9109 92.5871 74.986 92.6316 75.4523 92.3955Z" fill="#BCBBBB"/>
<path d="M76.4226 96.5733C78.2289 96.5448 78.6451 97.2817 80.4019 97.5569C81.3452 97.7057 82.6841 97.3031 83.2395 97.404C82.5332 97.6915 81.1968 97.984 80.4161 98.1787C78.7166 98.2724 78.3955 97.5284 76.916 97.3633C76.3996 97.3062 74.7389 98.0258 73.9521 97.9585L74.0092 97.8229C74.8187 97.3031 75.516 96.8934 76.4226 96.5733Z" fill="#484848"/>
<path d="M91.2712 129.964C91.3212 127.451 91.4958 124.802 91.3661 121.958C91.184 117.96 89.808 112.541 90.3808 108.416C90.4295 108.065 91.2563 107.417 91.6166 107.352C93.9533 106.933 96.6475 106.82 99.0273 106.521C100.628 106.333 102.224 106.106 103.814 105.84C107.104 105.268 114.555 103.582 117.637 105.076C119.607 107.651 120.239 112.815 121.031 115.99C121.243 116.841 121.56 121.253 121.819 121.604C120.739 122.101 117.042 123.142 116.6 123.876C115.932 124.872 115.572 125.668 115.012 126.707C113.054 127.363 111.097 127.99 109.122 128.593C108.519 128.777 107.996 128.921 107.661 129.488C107.521 129.913 106.98 131.67 106.803 131.931C106.206 131.693 104.551 131.904 103.844 131.862C101.345 131.717 92.7288 132.211 91.2712 129.964Z" fill="#484848"/>
<path d="M93.0342 108.036C96.5625 107.672 100.083 107.235 103.593 106.724C105.462 106.449 114.453 104.59 115.419 105.816C115.685 106.734 114.32 108.485 113.601 108.975L113.462 109.11C113.524 110.273 114.093 111.916 114.309 113.109C114.826 115.971 113.554 118.421 112.898 121.122C109.489 122.815 104.598 125.576 101.152 127.142C100.297 127.532 93.8086 126.898 92.5755 126.501C92.381 127.178 92.1873 127.893 91.9681 128.56C92.0827 127.407 92.1677 126.475 92.1952 125.311C92.1783 124.505 92.1646 123.756 92.1892 122.951C92.0449 119.34 91.8764 115.687 91.5641 112.089C91.409 110.302 91.5267 109.278 93.0342 108.036Z" fill="#6C6C6C"/>
<path d="M93.0342 108.036C96.5625 107.672 100.083 107.235 103.593 106.724C105.462 106.449 114.453 104.59 115.419 105.816C115.685 106.734 114.32 108.485 113.601 108.975L113.462 109.11C112.776 109.293 112.416 109.362 111.713 109.458C111.667 109.469 111.62 109.481 111.574 109.491C110.403 109.756 109.039 109.739 107.838 109.816C104.74 110.011 101.643 110.155 98.548 110.395C97.0101 110.514 95.2737 110.547 93.7888 110.97C93.2147 111.133 92.5723 111.406 92.2344 111.926C91.8083 112.582 92.3581 118.887 92.3906 120.059C92.3767 120.667 92.4311 122.517 92.1892 122.951C92.0449 119.34 91.8764 115.687 91.5641 112.089C91.409 110.302 91.5267 109.278 93.0342 108.036Z" fill="#A4A4A3"/>
<path d="M111.713 109.458L111.555 109.373L111.637 109.223C112.107 109.076 113.093 108.992 113.6 108.975L113.462 109.11C112.776 109.293 112.416 109.362 111.713 109.458Z" fill="#CDCCCD"/>
<path d="M92.3906 120.059C92.5378 120.847 92.6541 124.737 92.1952 125.311C92.1783 124.505 92.1645 123.756 92.1892 122.951C92.4311 122.517 92.3766 120.667 92.3906 120.059Z" fill="#8B8B8A"/>
<path d="M100.195 118.604C100.073 118.06 100.13 117.671 100.214 117.149C100.848 113.205 100.767 112.427 105.004 111.804C107.112 111.494 108.146 111.491 110.318 111.754C109.244 112.003 107.526 112.108 106.356 112.222L107.019 112.329L107.005 112.427C105.129 113.326 104.642 113.923 103.084 115.204C102.826 115.417 102.105 115.718 101.762 115.94L101.707 116.045C101.367 116.713 100.712 118.676 100.268 118.963C100.196 118.752 100.2 118.82 100.195 118.604Z" fill="#484848"/>
<path d="M101.417 115.168C103.071 114.298 104.369 112.541 106.356 112.222L107.018 112.329L107.005 112.427C105.129 113.326 104.641 113.923 103.084 115.204C102.826 115.416 102.104 115.718 101.762 115.94L101.707 116.045C101.367 116.713 100.712 118.676 100.268 118.962C100.195 118.751 100.199 118.82 100.194 118.604C100.512 117.627 100.971 116.022 101.417 115.168Z" fill="#8B8B8A"/>
<path d="M116.296 107.036C117.555 107.405 118.532 110.08 118.645 111.297C118.377 111.046 118.384 110.876 118.254 110.537C117.775 109.284 117.09 108.111 116.296 107.036Z" fill="#1D1D1D"/>
<path d="M125.578 94.7261C126.057 95.4715 127.433 97.7444 128.327 97.6945C129.193 97.2817 129.328 96.026 130.713 95.9842C129.404 98.4325 129.197 98.5701 126.923 100.222C127.281 100.379 127.783 100.619 128.14 100.737C129.22 101.124 132.8 102.51 133.777 103.029C134.713 103.336 136.817 104.205 137.533 104.828C138.345 106.443 138.912 108.996 139.42 110.782C139.89 112.431 140.417 114.14 140.861 115.788L141.007 116.175L141.085 116.192C142.471 116.375 146.873 117.869 147.578 118.964C148.065 120.229 150.095 126.702 149.996 127.815C149.548 128.474 146.802 128.792 145.959 128.821C144.278 128.817 142.825 128.434 141.138 128.447C140.901 128.191 140.285 126.56 139.853 126.211C139.203 124.992 138.167 122.985 137.411 121.905C136.406 120.966 130.392 119.997 128.865 119.988L129.053 119.854L129.073 119.628C128.495 119.083 124.518 119.638 123.314 119.587C122.552 118.028 122.338 116.593 121.921 114.917C121.762 114.082 121.148 112.827 121.084 112.034C120.859 109.264 119.463 107.167 119.514 104.382C120.693 102.972 122.444 102.916 124.101 102.066C125.193 101.506 125.35 101.372 126.349 100.565C124.045 101.064 120.338 102.858 118.008 103.455C117.062 103.698 113.089 103.534 111.796 103.552C109.846 103.579 106.849 104.27 105.221 103.947C107.25 103.341 109.359 102.645 111.445 102.251C112.792 101.996 116.091 102.289 117.166 102.153C118.514 101.981 124.597 99.677 125.662 98.9502C126.31 97.9697 125.783 95.8537 125.578 94.7261Z" fill="#373737"/>
<path d="M137.532 104.828C138.344 106.443 138.911 108.996 139.42 110.782C139.89 112.431 140.417 114.14 140.86 115.787L141.007 116.175L140.928 116.201C140.062 116.168 137.525 118.644 136.46 119.291C135.825 119.304 135.19 119.276 134.559 119.206C134.026 119.146 132.047 118.858 131.72 118.525C130.853 117.642 131.12 114.901 130.499 113.647C129.911 112.458 129.192 111.672 128.425 110.715C128.776 109.338 128.905 108.795 128.86 107.374C130.628 107.435 135.129 106.173 136.748 105.357C136.8 105.309 137.437 104.891 137.532 104.828Z" fill="#484848"/>
<path d="M137.533 104.828C138.345 106.443 138.912 108.996 139.421 110.782C139.89 112.431 140.417 114.14 140.861 115.787C140.553 115.794 140.47 115.861 140.205 115.999C139.711 115.602 138.045 106.943 136.749 105.357C136.801 105.309 137.438 104.891 137.533 104.828Z" fill="#8B8B8A"/>
<path d="M141.085 116.192C142.471 116.374 146.873 117.869 147.578 118.963C148.065 120.228 150.095 126.702 149.996 127.815C149.548 128.474 146.802 128.792 145.959 128.821C145.838 128.735 145.603 128.25 145.422 128.12C144.384 127.386 143.041 127.265 141.872 126.765C141.32 125.713 139.963 122.447 139.292 121.836C139.26 121.444 139.301 118.748 139.379 118.466C139.652 118.248 139.905 118.016 140.166 117.784C140.518 117.25 140.864 116.791 141.085 116.192Z" fill="#484848"/>
<path d="M141.085 116.192C142.471 116.374 146.873 117.869 147.578 118.963C147.083 119.339 145.298 119.955 144.639 120.2C142.716 119.742 141.325 119.666 139.458 119.34C139.748 118.774 139.928 118.375 140.165 117.784C140.518 117.25 140.864 116.791 141.085 116.192Z" fill="#6C6C6C"/>
<path d="M144.324 122.193C145.023 122.74 145.244 124.408 145.356 125.262L145.176 125.215C144.643 124.356 144.344 123.205 144.324 122.193Z" fill="#373737"/>
<path d="M128.14 100.737C129.22 101.124 132.8 102.509 133.776 103.029C134.713 103.336 136.817 104.204 137.532 104.828C137.437 104.891 136.8 105.309 136.748 105.357C135.129 106.173 130.629 107.435 128.86 107.374L128.648 107.284L127.071 106.612L126.905 106.491L124.797 105.576C124.203 105.44 121.858 104.445 121.497 103.917C121.78 103.507 127.028 101.553 128.14 100.737Z" fill="#807F80"/>
<path d="M133.777 103.029C134.713 103.336 136.817 104.204 137.533 104.828C137.438 104.891 136.801 105.309 136.749 105.357C135.129 106.172 130.629 107.435 128.861 107.374L128.649 107.284L128.646 107.043C129.988 107.179 135.075 105.96 135.734 104.784C135.657 104.028 134.038 103.851 133.777 103.029Z" fill="#C1C0C1"/>
<path d="M124.799 105.576C125.422 105.373 126.489 105.902 126.892 106.38L126.907 106.491L124.799 105.576Z" fill="#A6A5A5"/>
<path d="M127.072 106.612C127.708 106.303 128.061 106.644 128.646 107.043L128.649 107.284L127.072 106.612Z" fill="#A6A5A5"/>
<path d="M141.007 116.175L141.085 116.192C140.863 116.791 140.518 117.25 140.165 117.784C139.904 118.017 139.651 118.248 139.378 118.466C139.062 118.766 138.809 119.001 138.538 119.349C138.095 119.92 137.802 121.217 137.162 121.45L137.086 121.302C137.389 119.617 139.786 117.379 140.929 116.201L141.007 116.175Z" fill="#1D1D1D"/>
<path d="M121.28 106.375L121.479 106.536C121.659 107.548 122.408 109.846 122.307 110.627C121.934 109.944 121.17 107.149 121.28 106.375Z" fill="#1D1D1D"/>
<path d="M64.0703 110.155C65.6561 109.452 67.893 108.433 69.4141 107.62C69.9206 108.484 70.5998 108.505 70.5507 109.69C70.0899 112.312 70.1301 115.395 69.6563 117.948C69.464 118.984 67.7604 121.341 67.3647 122.636C66.6011 123.937 67.2259 124.847 67.2054 126.369C67.2233 127.3 67.2474 127.976 67.3494 128.897L67.3598 129.41C66.0887 129.553 64.8797 129.268 63.5196 129.449C62.1025 129.636 58.5848 130.964 57.3353 130.771C56.181 130.634 50.854 129.144 49.8164 128.673C50.35 126.964 51.4949 124.539 52.2875 122.904C53.2006 122.212 55.0242 121.504 56.2178 121.587L56.4731 121.52C56.6905 121.013 56.8405 119.284 56.97 118.598C57.3268 116.705 57.5743 114.297 58.0791 112.469C58.1725 111.96 58.336 111.36 58.4614 110.848L58.755 111.141L58.872 110.735C59.4728 110.128 62.0447 110.485 63.1592 110.423L63.3072 110.415L64.0703 110.155Z" fill="#6C6C6C"/>
<path d="M52.2875 122.904C53.2006 122.212 55.0242 121.503 56.2178 121.587C57.0626 121.881 59.4461 122.48 60.2717 122.624C60.9747 122.826 61.7376 123.062 62.4433 123.227C64.3418 123.529 64.1662 128.266 65.9176 128.878C66.1171 128.948 67.0677 128.906 67.3494 128.897L67.3598 129.41C66.0887 129.553 64.8797 129.268 63.5196 129.449C62.1025 129.636 58.5848 130.964 57.3353 130.771C56.181 130.634 50.854 129.144 49.8164 128.673C50.35 126.964 51.4949 124.539 52.2875 122.904Z" fill="#8B8B8A"/>
<path d="M62.443 123.227C64.3415 123.529 64.1659 128.266 65.9173 128.878C66.1168 128.948 67.0674 128.906 67.3491 128.897L67.3595 129.41C66.0884 129.553 64.8794 129.268 63.5193 129.449C62.1022 129.636 58.5845 130.964 57.335 130.771C57.838 130.394 59.0368 125.395 59.3405 124.542C60.3743 124.206 61.4752 123.72 62.443 123.227Z" fill="#484848"/>
<path d="M52.2881 122.904C53.2011 122.212 55.0247 121.503 56.2184 121.587C57.0632 121.881 59.4466 122.48 60.2722 122.624C60.9752 122.826 61.7382 123.062 62.4439 123.227C61.4761 123.72 60.3752 124.206 59.3413 124.542C58.2796 124.42 53.1359 123.281 52.2881 122.904Z" fill="#A6A5A5"/>
<path d="M58.754 111.14L58.871 110.735C59.4717 110.127 62.0437 110.485 63.1581 110.423L63.3061 110.415C63.1646 111.425 62.2281 112.723 61.8772 113.696C61.6633 114.289 61.6183 115.026 61.4464 115.642C60.9999 117.894 60.8159 120.538 60.2706 122.624C59.445 122.48 57.0616 121.881 56.2168 121.587L56.472 121.52C56.6894 121.013 56.8395 119.283 56.9689 118.597C57.3258 116.705 57.5732 114.297 58.0781 112.469C58.1715 111.96 58.3349 111.36 58.4603 110.848L58.754 111.14Z" fill="#8B8B8A"/>
<path d="M58.4604 110.848L58.754 111.141C58.6364 111.698 58.5987 111.961 58.3473 112.486C58.2272 112.487 58.1874 112.501 58.0781 112.469C58.1715 111.96 58.335 111.36 58.4604 110.848Z" fill="#A6A5A5"/>
<path d="M64.0692 110.155C64.2502 110.804 63.2634 113.103 62.7972 113.743C61.6033 115.38 61.9779 117.158 61.7149 119.147C61.4876 117.926 61.6908 116.786 61.4463 115.642C61.6182 115.026 61.6632 114.289 61.8771 113.696C62.228 112.723 63.1645 111.425 63.3061 110.415L64.0692 110.155Z" fill="#484848"/>
<path d="M105.22 103.947C106.849 104.27 109.846 103.579 111.796 103.552C113.089 103.534 117.061 103.698 118.008 103.455C120.337 102.858 124.044 101.064 126.349 100.565C125.35 101.372 125.193 101.505 124.1 102.066C122.444 102.916 120.693 102.972 119.514 104.382C119.463 107.167 120.859 109.264 121.083 112.034C121.147 112.827 121.762 114.082 121.921 114.917C122.338 116.593 122.552 118.028 123.313 119.587C124.517 119.638 128.494 119.083 129.072 119.628L129.053 119.854L128.864 119.988C126.062 120.246 124.453 120.715 121.819 121.603C121.56 121.253 121.243 116.841 121.031 115.99C120.239 112.815 119.607 107.651 117.637 105.076C114.555 103.582 107.104 105.268 103.814 105.84C102.224 106.105 100.629 106.333 99.0274 106.521C96.6476 106.82 93.9534 106.933 91.6167 107.352C91.2563 107.417 90.4296 108.064 90.3809 108.416C89.8081 112.541 91.1841 117.96 91.3662 121.958C91.4959 124.802 91.3213 127.451 91.2713 129.964L91.0209 129.734C90.8994 129.897 90.8244 130.011 90.7169 130.184C90.725 126.007 90.9785 121.73 90.4147 117.578C90.3283 116.942 89.6323 114.97 89.416 113.873C89.4363 111.999 89.4417 109.661 88.5579 108.043C88.0786 107.771 87.7468 107.595 87.1828 107.587C84.0637 107.55 80.9842 107.846 77.8689 107.392C76.3716 107.174 75.285 106.486 74.663 108.35C75.6242 107.994 77.8065 108.509 78.9016 108.701C78.1317 112.181 76.3045 116.084 75.8204 119.66L76.2563 120.054C76.3679 120.277 76.8396 121.028 76.8516 121.169C76.3327 120.937 75.7761 120.665 75.2358 120.506C75.0133 121.512 74.9168 121.726 74.1147 122.386C73.1084 122.283 71.7897 121.95 70.9817 121.323C70.4998 123.871 71.2383 126.935 70.7851 129.296L70.5554 129.156C69.4708 129.33 68.4443 129.284 67.3591 129.41L67.3487 128.897C67.2467 127.976 67.2227 127.3 67.2047 126.369C67.2252 124.847 66.6005 123.937 67.364 122.636C67.7597 121.34 69.4633 118.984 69.6557 117.948C70.1294 115.395 70.0892 112.312 70.5501 109.69C70.5992 108.505 69.9199 108.484 69.4135 107.62L69.5632 107.55C70.3299 107.184 71.0196 106.847 71.7648 106.442C71.2883 105.583 70.6536 104.935 70.1778 103.985C70.6577 103.952 73.4579 105.47 74.2797 105.663C77.1946 106.346 81.927 107.14 84.8865 106.416C88.7505 105.472 91.723 105.826 95.6394 105.832C96.1748 105.833 98.164 105.48 98.5112 105.66C100.011 105.563 103.547 104.385 105.22 103.947Z" fill="#1D1D1D"/>
<path d="M70.1778 103.985C70.6577 103.952 73.4579 105.47 74.2797 105.663C77.1946 106.346 81.927 107.14 84.8865 106.416C88.7505 105.472 91.723 105.826 95.6394 105.832C96.1748 105.833 98.164 105.479 98.5112 105.66C96.6689 106.2 91.2967 105.884 89.1152 105.923C87.1056 105.958 86.2596 106.412 84.5263 106.642C81.1478 107.091 75.9495 106.631 72.8603 105.287C73.3947 106.255 73.8146 107.371 73.3661 108.49C72.4069 110.959 72.3072 113.503 71.6436 116.082C71.1344 118.061 69.9122 120.179 69.4776 121.994C68.877 124.5 70.0394 126.373 68.8117 129.059C69.1159 129.153 69.9031 129.004 70.5554 129.156C69.4708 129.329 68.4443 129.283 67.3591 129.41L67.3487 128.897C67.2467 127.976 67.2227 127.3 67.2047 126.368C67.2252 124.847 66.6005 123.936 67.364 122.636C67.7597 121.34 69.4633 118.984 69.6557 117.948C70.1294 115.395 70.0892 112.312 70.5501 109.69C70.5992 108.505 69.9199 108.484 69.4135 107.62L69.5632 107.55C70.3299 107.184 71.0196 106.847 71.7648 106.442C71.2883 105.582 70.6536 104.935 70.1778 103.985Z" fill="#373737"/>
<path d="M67.364 122.636L67.6272 122.797C67.717 123.494 67.8215 126.395 67.4485 126.891C67.2714 126.66 67.2874 126.654 67.2047 126.369C67.2252 124.847 66.6005 123.937 67.364 122.636Z" fill="#484848"/>
<path d="M69.4131 107.62L69.5628 107.55C70.0849 107.709 70.793 107.848 71.0204 108.391C71.2427 108.923 71.2947 109.88 70.9873 110.381L70.8409 110.373C70.7603 110.172 70.6516 109.869 70.5497 109.69C70.5988 108.505 69.9196 108.484 69.4131 107.62Z" fill="#484848"/>
<path d="M74.6637 108.35C75.6249 107.994 77.8072 108.509 78.9023 108.7C78.1324 112.181 76.3052 116.084 75.8211 119.66L76.257 120.054C76.3686 120.277 76.8403 121.027 76.8523 121.169C76.3334 120.937 75.7768 120.665 75.2365 120.506C75.014 121.512 74.9175 121.726 74.1154 122.386C73.1091 122.283 71.7904 121.95 70.9824 121.323L71.1533 120.932C71.5301 119.923 71.9956 119.083 72.3332 117.992C73.4176 115.071 73.857 111.483 74.6637 108.35Z" fill="#8B8B8A"/>
<path d="M72.8621 117.682L72.9892 117.622C73.5443 117.988 75.4931 119.54 75.8211 119.66L76.257 120.054C76.3686 120.278 76.8403 121.028 76.8523 121.169C76.3334 120.937 75.7768 120.665 75.2365 120.506C75.014 121.512 74.9175 121.726 74.1154 122.386C73.1091 122.283 71.7904 121.95 70.9824 121.323L71.1533 120.932C71.5301 119.923 71.9956 119.083 72.3332 117.992C72.5063 117.926 72.6996 117.786 72.8621 117.682Z" fill="#BCBBBB"/>
<path d="M72.8621 117.682C72.4924 118.745 72.7174 120.579 71.1533 120.932C71.5301 119.922 71.9956 119.083 72.3332 117.992C72.5064 117.926 72.6997 117.786 72.8621 117.682Z" fill="#A6A5A5"/>
<path d="M75.2358 120.506C75.7761 120.665 76.3327 120.937 76.8516 121.169C79.459 123.03 83.2611 121.29 85.7416 122.001C85.5804 122.19 85.3825 122.348 85.3717 122.555C85.3125 123.696 85.324 124.808 85.2595 125.958C85.1651 127.641 84.5197 130.581 84.5242 132.122C83.446 132.103 82.3681 132.07 81.2907 132.025C80.8272 131.953 80.5173 131.969 80.0562 131.975C77.8955 131.973 75.6958 132.111 73.6504 131.385C72.8636 131.137 71.5337 130.808 70.9403 130.241C70.6856 129.996 70.775 129.672 70.7851 129.296C71.2383 126.935 70.4998 123.871 70.9818 121.323C71.7897 121.95 73.1085 122.283 74.1147 122.386C74.9169 121.726 75.0134 121.512 75.2358 120.506Z" fill="#6C6C6C"/>
<path d="M70.9818 121.323C71.7897 121.95 73.1085 122.283 74.1147 122.386C73.585 123.029 73.7746 123.028 73.6855 123.734C73.5464 124.834 73.9972 130.842 73.6504 131.385C72.8636 131.137 71.5337 130.808 70.9403 130.241C70.6856 129.996 70.775 129.672 70.7851 129.296C71.2383 126.935 70.4998 123.871 70.9818 121.323Z" fill="#8B8B8A"/>
<path d="M80.8981 130.338C81.0979 130.908 81.1809 131.435 81.2911 132.025C80.8276 131.953 80.5178 131.969 80.0566 131.975C80.3192 131.38 80.6098 130.908 80.8981 130.338Z" fill="#484848"/>
<path d="M78.9024 108.7C79.7689 108.768 84.6879 108.955 85.1078 109.49C85.895 110.495 86.6481 118.4 85.257 119.362C84.5606 119.844 81.3068 120.467 80.2908 120.505C79.5398 120.575 77.6826 120.263 77.3206 120.456C76.9785 120.387 76.5886 120.195 76.2572 120.054L75.8213 119.659C76.3053 116.084 78.1326 112.181 78.9024 108.7Z" fill="#6C6C6C"/>
<path d="M89.4163 113.873C89.6326 114.97 90.3285 116.942 90.415 117.578C90.9787 121.73 90.7252 126.006 90.7172 130.183C90.2695 130.627 89.9281 130.891 89.379 131.203C89.2881 130.006 89.4749 128.995 89.5864 127.777C89.7689 125.786 89.8678 123.294 89.6665 121.305C89.6247 120.892 89.021 119.522 88.8295 119.1C88.5303 118.867 88.512 118.867 88.1367 118.761L88.0439 118.737C88.2352 118.35 88.8367 118.041 88.9842 117.741C89.5492 116.593 89.0848 115.097 89.4163 113.873Z" fill="#484848"/>
<path d="M76.2568 120.054C76.5882 120.195 76.9781 120.388 77.3202 120.457C78.8873 121.214 79.4485 121.296 81.1571 121.641C81.4808 121.522 82.5704 121.121 82.8575 121.085C84.588 120.861 85.2989 120.939 86.9982 120.453C86.5471 121.106 86.3089 121.438 85.7421 122.001C83.2616 121.291 79.4595 123.03 76.8521 121.169C76.8401 121.028 76.3683 120.277 76.2568 120.054Z" fill="#8B8B8A"/>
<path d="M128.864 119.988C130.391 119.997 136.406 120.966 137.411 121.905C138.166 122.984 139.203 124.991 139.853 126.21C140.284 126.56 140.901 128.191 141.137 128.447C141.318 128.786 142.038 130.038 141.892 130.312C140.893 132.18 136.768 132.992 134.926 133.406C131.768 134.117 129.02 134.328 125.856 134.641C124.927 134.728 123.868 135.387 122.8 135.252C120.695 135.334 118.527 135.064 116.496 135.126C114.869 135.176 113.412 135.586 111.581 135.531C111.13 135.26 110.2 135.013 109.638 134.805C109.347 134.537 109.272 134.53 108.89 134.379L108.773 134.334L108.926 134.17L108.919 134.246L108.893 134.141C108.226 133.81 106.811 133.238 106.559 132.647L106.803 131.931C106.98 131.67 107.521 129.912 107.661 129.487C107.996 128.921 108.519 128.777 109.122 128.592C111.097 127.99 113.054 127.363 115.012 126.707C115.572 125.668 115.932 124.872 116.6 123.876C117.042 123.141 120.739 122.101 121.819 121.603C124.453 120.715 126.062 120.246 128.864 119.988Z" fill="#484848"/>
<path d="M128.865 119.988C130.391 119.997 136.406 120.966 137.411 121.905C136.848 122.077 134.655 121.233 133.881 121.135C133.281 121.06 132.649 120.891 131.981 120.848C130.613 122.206 127.902 123.224 126.288 124.425C125.944 124.681 125.374 125.284 125.054 125.612C124.835 126.032 124.638 126.399 124.457 126.839L124.374 126.851C123.897 126.861 123.42 126.861 122.944 126.853C120.693 126.657 117.274 126.656 115.013 126.707C115.572 125.668 115.932 124.872 116.601 123.876C117.042 123.141 120.739 122.101 121.819 121.603C124.453 120.715 126.063 120.246 128.865 119.988Z" fill="#A6A5A5"/>
<path d="M116.601 123.876C116.801 124.376 116.588 124.733 116.89 125.122C118.11 125.738 122.156 125.626 123.633 125.63C123.956 125.631 124.847 125.533 125.054 125.612C124.835 126.032 124.638 126.399 124.457 126.839L124.374 126.851C123.897 126.861 123.42 126.861 122.944 126.853C120.693 126.657 117.274 126.656 115.013 126.707C115.572 125.668 115.932 124.872 116.601 123.876Z" fill="#BCBBBB"/>
<path d="M115.012 126.707C117.274 126.656 120.693 126.657 122.943 126.853C123.419 126.861 123.896 126.861 124.373 126.851L124.457 126.839C125.043 126.953 125.252 126.944 125.84 126.94C126.4 126.929 126.898 126.889 127.453 126.843C127.736 127.129 127.958 127.286 128.045 127.671L127.997 127.852C128.028 128.395 128.098 128.898 127.972 129.421L127.77 129.489C127.291 129.584 126.926 129.042 126.178 129.086C120.835 129.393 115.264 129.973 110.035 131.15C109.471 130.937 109.174 130.7 108.682 130.363C108.231 130.147 108.009 129.852 107.661 129.487C107.995 128.921 108.518 128.777 109.122 128.592C111.097 127.99 113.054 127.363 115.012 126.707Z" fill="#8B8B8A"/>
<path d="M115.012 126.707C117.274 126.656 120.693 126.657 122.943 126.853C120.101 127.826 117.638 128.315 114.714 128.936C113.312 129.235 109.768 130.377 108.682 130.363C108.231 130.147 108.009 129.852 107.661 129.487C107.995 128.921 108.518 128.777 109.122 128.592C111.097 127.99 113.054 127.363 115.012 126.707Z" fill="#A6A5A5"/>
<path d="M125.841 126.94C126.402 126.929 126.899 126.889 127.455 126.843C127.737 127.129 127.959 127.286 128.046 127.671L127.998 127.853C128.03 128.395 128.099 128.898 127.974 129.421L127.772 129.489C127.414 127.383 125.149 128.331 124.293 127.093L124.375 126.851L124.458 126.839C125.044 126.954 125.253 126.944 125.841 126.94Z" fill="#484848"/>
<path d="M125.84 126.941C126.4 126.929 126.898 126.89 127.453 126.844C127.736 127.129 127.958 127.286 128.045 127.671L127.997 127.853C127.484 127.405 126.637 127.341 125.84 126.941Z" fill="#6C6C6C"/>
<path d="M131.98 120.848C132.649 120.891 133.281 121.06 133.881 121.136C134.655 121.234 136.847 122.078 137.411 121.905C138.166 122.985 139.203 124.992 139.853 126.211C139.13 125.923 138.08 123.616 137.374 122.67C136.754 123.47 135.986 124.33 135.322 125.108C132.795 125.106 129.719 125.736 127.454 126.844C126.898 126.89 126.401 126.929 125.84 126.941C125.252 126.945 125.043 126.954 124.457 126.84C124.637 126.399 124.835 126.032 125.053 125.612C125.373 125.284 125.944 124.681 126.288 124.425C127.902 123.224 130.612 122.206 131.98 120.848Z" fill="#6C6C6C"/>
<path d="M107.661 129.487C108.009 129.852 108.231 130.147 108.683 130.363C109.174 130.7 109.472 130.937 110.035 131.15C109.501 132.125 109.195 133.656 108.893 134.141C108.226 133.81 106.811 133.238 106.559 132.647L106.803 131.93C106.98 131.67 107.521 129.912 107.661 129.487Z" fill="#6C6C6C"/>
<path d="M69.9631 103.63L70.1781 103.985C70.6539 104.935 71.2886 105.583 71.7651 106.442C71.0199 106.847 70.3301 107.184 69.5634 107.55L69.4137 107.62C67.8926 108.433 65.6557 109.452 64.0699 110.155L63.3068 110.415L63.1588 110.423C62.0443 110.485 59.4724 110.127 58.8716 110.735L58.7546 111.141L58.4609 110.848C58.5637 110.514 58.6749 110.187 58.8235 109.87C60.1172 107.115 67.0449 104.691 69.9631 103.63Z" fill="#AEADAD"/>
<path d="M106.392 133.301L106.559 132.647C106.812 133.238 108.226 133.81 108.893 134.141L108.92 134.246L108.927 134.17L108.774 134.334L108.89 134.379C109.272 134.53 109.348 134.537 109.638 134.805C110.201 135.013 111.13 135.26 111.581 135.531C111.232 135.557 110.961 135.531 110.691 135.735C109.36 136.659 103.944 136.663 102.241 136.32C101.64 136.152 99.5056 135.751 99.8134 134.882C100.077 134.137 101.664 133.425 102.372 133.151C103.373 132.761 103.853 132.512 104.859 132.933C105.201 133.099 105.941 133.431 106.226 133.629C106.368 133.462 106.32 133.525 106.392 133.301Z" fill="#6C6C6C"/>
<path d="M102.241 136.32C101.64 136.152 99.5056 135.751 99.8134 134.882C100.077 134.137 101.664 133.425 102.372 133.151C103.373 132.761 103.853 132.512 104.859 132.933C104.057 134.414 103.335 135.053 102.241 136.32Z" fill="#A6A5A5"/>
<path d="M106.392 133.301L106.559 132.647C106.812 133.238 108.226 133.81 108.893 134.141L108.92 134.246L108.927 134.17L108.774 134.334L108.89 134.379C109.272 134.53 109.348 134.537 109.638 134.805C110.201 135.013 111.13 135.26 111.581 135.531C111.232 135.557 110.961 135.531 110.691 135.735C109.969 135.554 106.687 134.132 106.226 133.629C106.368 133.462 106.32 133.525 106.392 133.301Z" fill="#101010"/>
<path d="M106.392 133.301L106.559 132.647C106.812 133.238 108.226 133.81 108.893 134.141L108.919 134.246L108.927 134.17L108.774 134.334L108.89 134.379C109.272 134.53 109.347 134.537 109.638 134.805C108.794 134.53 106.937 134.019 106.392 133.301Z" fill="#484848"/>
</svg>
