<svg width="24" height="24" viewBox="0 0 24 24" fill="none" xmlns="http://www.w3.org/2000/svg">
<path d="M16.816 8.95825C17.112 9.01678 17.755 9.08664 17.9605 9.2964C18.1147 9.45372 18.7754 11.1564 18.7623 11.3672C18.7447 11.6517 18.5458 11.8878 18.3413 12.0679C17.6379 12.6877 16.3622 13.0267 15.4343 12.9649C15.5264 11.9627 15.2517 11.3959 14.7086 10.5821C14.8572 11.0675 15.2017 12.178 15.0572 12.628C15.0128 12.7661 14.9006 12.8816 14.771 12.9436C14.5107 13.0685 11.1264 13.5598 10.6577 13.5712C10.4602 13.576 10.2794 13.5401 10.094 13.474C9.91387 13.4101 9.66945 13.307 9.58945 13.1213C9.46886 12.8413 9.64454 12.4308 9.75099 12.169C9.83481 11.9676 9.92234 11.768 10.0135 11.5699C9.61318 11.9443 9.33986 12.2442 9.22473 12.7971C9.18801 12.9735 9.1199 13.2214 9.04179 13.3792C8.41988 13.6374 7.31295 13.3422 6.70422 13.1029C6.52271 13.0314 6.01832 12.8372 5.94403 12.6398C5.89073 12.4982 5.94614 10.823 5.97932 10.534C5.98896 10.45 6.00618 10.371 6.04073 10.2935C6.09686 10.1676 6.19168 10.0681 6.30593 9.99245C6.63132 9.77709 7.3926 9.53384 7.78174 9.39294C7.86358 9.41523 7.94564 9.4366 8.02793 9.45705C9.79573 9.89694 13.8402 9.90805 15.6371 9.45187C16.0601 9.34455 16.4424 9.18197 16.816 8.95825Z" fill="#FEFEFE"/>
<path d="M10.4027 4.42071C10.7767 4.39818 11.1678 4.46157 11.5404 4.5086C11.9631 4.56123 12.3853 4.61678 12.807 4.67559C13.6146 4.78944 14.4578 4.8761 15.2523 5.06133C15.3707 5.08893 15.5259 5.12235 15.6205 5.20098C15.8245 5.37161 16.5695 6.76831 16.6918 7.0711C16.7622 7.24483 16.8116 7.41894 16.8266 7.60625C16.8502 7.90136 16.7964 8.20808 16.5951 8.43633C16.0346 9.07171 14.4346 9.16794 13.6176 9.22149C11.9926 9.36172 9.46056 9.32704 7.90372 8.93243C7.72628 8.88745 7.45809 8.8331 7.30997 8.72051C7.23847 8.66611 7.21287 8.5768 7.19669 8.492C7.12591 8.12068 7.40807 5.94872 7.60196 5.68243C7.77463 5.4456 9.55235 4.68902 9.91934 4.55254C10.0788 4.49328 10.2352 4.44979 10.4027 4.42071ZM14.8793 5.56817C14.1387 5.81735 13.6722 6.05282 12.8695 6.04082C12.778 6.03958 11.8552 6.10534 11.8051 6.12774C11.847 6.16033 11.8587 6.15336 11.9145 6.15508C13.4566 6.31165 13.5205 6.46408 14.8705 5.60039L14.8793 5.56817Z" fill="#FEFEFE"/>
<path d="M14.5173 13.5337C14.8138 13.52 15.094 13.5998 15.3149 13.8052C15.7243 14.1859 15.7742 14.8801 15.7998 15.4035C15.8143 15.6976 15.8737 16.3007 15.7533 16.5662C15.7292 16.6196 15.6962 16.6458 15.6473 16.6755C15.5257 16.7496 15.3804 16.7998 15.2498 16.8567C14.9104 17.0043 14.5597 17.1586 14.2649 17.3856C14.06 17.5437 13.9536 17.7699 13.7798 17.9533C13.5061 18.2421 11.8529 18.369 11.3966 18.3803C11.0435 18.3782 10.5618 18.393 10.296 18.1396C10.2039 17.8255 10.2232 17.4902 10.2129 17.1631C10.1874 16.3429 10.0897 15.5228 10.0665 14.704C10.0638 14.6076 10.1124 14.3212 10.193 14.2635C10.4079 14.1091 10.7132 14.0752 10.9684 14.0346C11.7174 13.927 12.4578 13.8066 13.2054 13.6956C13.6422 13.6307 14.0774 13.5661 14.5173 13.5337Z" fill="#FEFEFE"/>
<path d="M6.89186 13.696C7.21967 13.7026 7.59872 13.7943 7.94463 13.8449C8.42356 13.9272 8.9763 13.7945 9.4367 13.8973C9.70222 13.9564 9.64846 14.7302 9.65692 14.9474C9.68795 15.7453 9.78533 16.5605 9.76758 17.3578C9.75059 18.1207 9.57387 18.2933 8.86361 18.48C8.26487 18.5975 6.62636 18.5146 6.1632 18.3045C5.74947 18.117 6.22 15.1116 6.41423 14.6713C6.55087 14.3615 6.53619 13.7677 6.89186 13.696Z" fill="#FEFEFE"/>
<path d="M5.63369 13.0369C5.81051 13.051 6.18746 13.2768 6.29001 13.416C6.3749 13.5312 6.14091 14.0852 6.09315 14.2356C5.84439 15.0227 5.68055 15.8343 5.60444 16.6564C5.57328 17.0218 5.59451 17.4974 5.51971 17.839C5.31663 17.8873 5.25419 17.8851 5.05616 17.8566C4.79039 17.5915 4.73918 17.2806 4.40606 17.0288C4.22689 17.0382 4.15029 17.0583 3.98632 17.116C3.9429 17.3661 3.87281 18.0282 3.73392 18.2376C3.67853 18.3211 3.45732 18.3127 3.3569 18.3119C2.93048 18.2771 2.32568 18.1622 1.91826 18.0015C1.86944 17.9823 1.78768 17.9188 1.77923 17.8632C1.74058 17.6087 2.0043 17.1758 2.10876 16.9649C2.37133 16.4347 2.64091 16.5453 3.14177 16.4065C3.16339 16.4003 3.29014 16.3588 3.29542 16.3406C3.45831 15.7828 3.57345 14.5144 3.80133 14.0266C3.95981 13.6874 5.27464 13.1345 5.63369 13.0369Z" fill="#FEFEFE"/>
<path d="M17.2751 16.7241C17.2896 16.722 17.3042 16.72 17.3187 16.7185C17.3754 16.713 17.4293 16.7151 17.4851 16.7259C17.6501 16.7581 18.941 17.0739 18.992 17.1206C19.0861 17.2066 19.8241 18.3515 19.8235 18.4168C19.8228 18.4726 19.7932 18.5308 19.7555 18.5711C19.4912 18.8524 17.9895 19.1252 17.5527 19.1865C17.2993 19.2219 17.0481 19.237 16.7928 19.2454C16.2057 19.2726 15.6178 19.2843 15.0299 19.2802C14.9577 19.0599 14.9951 18.7895 14.772 18.6714C14.6805 18.6229 14.5828 18.5736 14.4934 18.5232C13.9303 18.2065 14.3433 17.7128 14.7505 17.5081C15.0121 17.3769 15.2776 17.305 15.5558 17.2186C15.8111 17.1394 16.0686 17.061 16.3257 16.9912C16.6358 16.9069 16.9617 16.7832 17.2751 16.7241Z" fill="#FEFEFE"/>
<path d="M18.1157 12.7849C18.4426 12.8377 19.606 13.1915 19.87 13.3681C19.9046 13.4265 19.9568 13.5403 19.974 13.6275C20.1069 14.3032 20.3036 14.9906 20.4211 15.6641C20.4285 15.7062 20.3103 15.842 20.2731 15.8688C19.7226 16.2632 19.1315 16.4853 18.4664 16.4393C18.3702 16.4311 18.0523 16.4119 17.9972 16.347C17.7325 16.0284 17.7487 15.0561 17.5057 14.7595C17.1172 14.285 16.2136 14.295 16.0703 13.5626C16.9503 13.3223 17.3106 13.2447 18.1157 12.7849Z" fill="#FEFEFE"/>
<path d="M20.7468 16.0435C20.8803 16.0508 21.6258 16.1327 21.686 16.2299C21.9241 16.6563 22.105 17.2291 22.2321 17.6968C22.3163 18.0062 21.3662 18.1058 21.1716 18.1282C20.9249 18.1544 20.7613 18.1632 20.5216 18.0991C20.3327 17.8389 20.1716 17.5538 19.9775 17.2938C19.8823 17.1663 19.6367 16.9417 19.6328 16.7972C19.6551 16.7327 19.7051 16.6623 19.7622 16.6271C20.0817 16.4297 20.4246 16.2355 20.7468 16.0435Z" fill="#FEFEFE"/>
<path d="M13.1103 18.5265C13.4133 18.4993 13.7756 18.5523 14.0673 18.6317C14.2292 18.6759 14.6519 19.1564 14.5959 19.3392C14.463 19.42 13.5856 19.5494 13.3885 19.577C13.0448 19.6229 12.4411 19.4278 12.0858 19.3646C12.0012 19.3494 11.9253 19.3324 11.8821 19.2624C11.8612 19.0458 12.1089 18.9333 12.2631 18.8229C12.5148 18.6428 12.8084 18.5709 13.1103 18.5265Z" fill="#FEFEFE"/>
</svg>
