<svg width="164" height="120" viewBox="0 0 164 120" fill="none" xmlns="http://www.w3.org/2000/svg">
<path d="M45.1188 28.5729C44.705 26.6399 45.6707 22.8621 45.9232 20.7176C46.2683 17.7832 46.7585 14.7766 47.1383 11.8357C47.3192 10.4351 47.8002 9.69374 49.13 9.10407C54.1358 6.95307 58.8475 4.80607 63.8083 2.49824C73.6778 -2.09326 85.6352 0.778746 95.9652 2.20025C99.6202 2.70325 110.017 4.52791 112.295 6.94957C113.662 9.18741 114.963 11.4637 116.198 13.7761C118.37 17.7607 120.55 21.0126 119.577 25.8604C119.385 26.8126 119.053 27.5287 118.275 28.1402C117.218 29.1319 116.342 29.7054 115.115 30.4846L114.277 32.7454L115.012 32.9929C115.962 33.0557 116.434 33.1056 117.39 33.2861C120.649 33.5509 123.895 33.9317 127.127 34.4276C127.848 34.6694 128.132 34.7179 128.735 35.1544C130.472 38.7076 132.763 43.7096 133.983 47.5327C134.323 48.6006 132.825 51.8661 132.278 53.0844C130.138 57.0877 129.8 57.3127 126.082 60.0144C126.667 60.2711 127.488 60.6627 128.072 60.8561C129.838 61.4894 135.692 63.7544 137.289 64.6044C138.82 65.1061 142.26 66.5261 143.43 67.5461C144.759 70.1861 145.685 74.3611 146.517 77.2811C147.285 79.9777 148.147 82.7727 148.872 85.4661L149.112 86.0994L149.238 86.1277C151.505 86.4261 158.704 88.8694 159.855 90.6594C160.652 92.7277 163.972 103.313 163.81 105.133C163.077 106.211 158.587 106.731 157.209 106.778C154.46 106.771 152.084 106.144 149.325 106.166C148.939 105.748 147.93 103.081 147.225 102.509C146.162 100.516 144.467 97.2344 143.232 95.4694C141.588 93.9344 131.753 92.3494 129.257 92.3344C124.675 92.7561 122.043 93.5228 117.737 94.9761C115.97 95.7894 109.925 97.4911 109.204 98.6927C108.11 100.321 107.522 101.623 106.607 103.321C103.405 104.394 100.205 105.419 96.9752 106.404C95.9885 106.706 95.1335 106.941 94.5868 107.868C94.3568 108.563 93.4718 111.436 93.1835 111.863C92.2068 111.474 89.5002 111.819 88.3452 111.751C84.2585 111.513 70.1697 112.321 67.7863 108.646L67.3768 108.271C67.1782 108.538 67.0555 108.724 66.8798 109.006C66.1478 109.731 65.5895 110.163 64.6917 110.673C61.8427 112.118 59.9615 112.183 56.7537 112.176C54.9907 112.144 53.2282 112.091 51.4663 112.018C50.7085 111.899 50.2018 111.926 49.4478 111.936C45.9147 111.933 42.3178 112.158 38.9733 110.971C37.6868 110.564 35.5122 110.028 34.5418 109.099C34.1253 108.699 34.2715 108.169 34.2882 107.554L33.9125 107.326C32.139 107.609 30.4605 107.534 28.6862 107.741C26.6077 107.974 24.6308 107.509 22.4068 107.804C20.0897 108.111 14.3377 110.283 12.2945 109.966C10.4072 109.743 1.69667 107.306 0 106.536C0.8725 103.741 2.74466 99.7761 4.04066 97.1028C5.53366 95.9711 8.51549 94.8127 10.4673 94.9494L10.8847 94.8394C11.2402 94.0111 11.4855 91.1828 11.6972 90.0611C12.2807 86.9661 12.6853 83.0294 13.5108 80.0394C13.6635 79.2078 13.9308 78.2261 14.1358 77.3894L14.616 77.8677L14.8073 77.2044C15.7897 76.2111 19.9952 76.7961 21.8175 76.6944L22.0595 76.6811L23.3073 76.2561C25.9003 75.1061 29.558 73.4411 32.0453 72.1111L32.2902 71.9961C33.5438 71.3978 34.6717 70.8478 35.8902 70.1844C35.111 68.7794 34.0732 67.7211 33.2952 66.1677L32.9437 65.5861L33.2507 65.1194L32.8095 64.4661C32.6233 63.4861 32.8927 51.2859 33.0743 49.8552C33.0462 48.4912 32.9538 44.8672 34.4418 44.1969C39.139 42.0802 43.9298 40.0909 48.6613 38.0166L51.6257 36.3844L52.149 36.0677C49.5877 35.2054 48.445 34.1112 46.9792 31.9286C46.1093 31.1026 45.114 29.8309 45.1188 28.5729Z" fill="#373737"/>
<path d="M45.1183 28.5729C44.7044 26.6399 45.6701 22.8621 45.9226 20.7176C46.2678 17.7832 46.7579 14.7766 47.1378 11.8357C47.3186 10.4351 47.7996 9.69374 49.1294 9.10407C54.1353 6.95307 58.8469 4.80607 63.8078 2.49824C73.6773 -2.09326 85.6346 0.778746 95.9646 2.20025C99.6196 2.70325 110.016 4.52791 112.295 6.94957C113.661 9.18741 114.963 11.4637 116.198 13.7761C118.37 17.7607 120.55 21.0126 119.576 25.8604C119.385 26.8126 119.053 27.5287 118.275 28.1402C117.218 29.1319 116.341 29.7054 115.115 30.4846L114.276 32.7454L115.011 32.9929C115.961 33.0557 116.433 33.1056 117.39 33.2861C120.648 33.5509 123.895 33.9317 127.126 34.4276C127.848 34.6694 128.131 34.7179 128.735 35.1544C130.471 38.7076 132.763 43.7096 133.983 47.5327C134.323 48.6006 132.825 51.8661 132.278 53.0844C130.015 53.1527 129.793 55.2061 128.376 55.8811C126.915 55.9627 124.665 52.2461 123.881 51.0272C124.218 52.8711 125.08 56.3311 124.02 57.9344C122.278 59.1227 112.331 62.8894 110.126 63.1711C108.37 63.3944 102.975 62.9144 100.773 63.3311C97.3613 63.9761 93.9129 65.1144 90.5946 66.1044C87.8579 66.8211 82.0763 68.7477 79.6241 68.9061C79.0564 68.6111 75.8038 69.1894 74.9283 69.1877C68.5243 69.1777 63.6638 68.5994 57.3456 70.1427C52.5063 71.3261 44.7681 70.0277 40.0018 68.9111C38.6581 68.5961 34.0793 66.1127 33.2946 66.1677L32.9431 65.5861L33.2501 65.1194L32.8089 64.4661C32.6228 63.4861 32.8921 51.2859 33.0738 49.8552C33.0456 48.4912 32.9533 44.8672 34.4413 44.1969C39.1384 42.0802 43.9293 40.0909 48.6608 38.0166L51.6251 36.3844L52.1484 36.0677C49.5871 35.2054 48.4444 34.1112 46.9786 31.9286C46.1088 31.1026 45.1134 29.8309 45.1183 28.5729Z" fill="#6C6C6C"/>
<path d="M45.1184 28.5729C44.7045 26.6399 45.6702 22.8621 45.9227 20.7176C46.2679 17.7832 46.758 14.7766 47.1378 11.8357C47.3187 10.4351 47.7997 9.69374 49.1295 9.10408C54.1353 6.95308 58.847 4.80607 63.8078 2.49824C73.6773 -2.09326 85.6347 0.778746 95.9647 2.20025C99.6197 2.70325 110.016 4.52791 112.295 6.94957C113.661 9.18741 114.963 11.4637 116.198 13.7761C118.37 17.7607 120.55 21.0126 119.576 25.8604C119.385 26.8126 119.053 27.5288 118.275 28.1403C117.355 28.3573 116.36 28.5947 115.511 29.0357C114.651 29.3989 113.126 30.0926 112.286 30.3118C111.163 30.7091 107.668 31.7657 106.788 32.2789C105.52 32.5689 102.846 33.2097 101.656 33.2576C100.961 33.0059 92.5697 33.0393 91.263 33.0231C88.5264 33.0421 84.8847 33.5509 82.0247 33.7184C80.1682 33.8273 75.2165 33.6427 73.7999 33.8596C69.6302 33.7022 65.312 33.8439 61.1394 33.6266C59.2392 33.4232 57.2789 33.3919 55.3655 33.1999C52.5379 32.9164 49.768 32.4587 46.9787 31.9286C46.1089 31.1026 45.1135 29.8309 45.1184 28.5729Z" fill="#8B8B8A"/>
<path d="M112.296 6.94946C113.662 9.1873 114.964 11.4636 116.199 13.776C118.371 17.7606 120.551 21.0125 119.577 25.8603C119.386 26.8125 119.054 27.5286 118.276 28.1401C117.356 28.3571 116.361 28.5946 115.512 29.0356C114.652 29.3988 113.127 30.0925 112.287 30.3116C111.164 30.709 107.669 31.7656 106.789 32.2788C105.521 32.5688 102.847 33.2096 101.657 33.2575C100.962 33.0058 92.5706 33.0391 91.2639 33.023L91.5056 32.8508C91.7972 32.1838 91.7289 29.6685 91.6656 28.8573C91.4339 25.8628 91.8173 23.893 89.5389 21.755C86.9373 22.8243 84.1423 22.475 81.4756 21.903C86.6173 21.3866 87.0306 21.5828 91.1206 18.6928C91.4206 16.939 91.0673 14.5745 91.3289 12.6766C91.8739 12.4975 92.2656 12.4636 92.8273 12.3865C97.3573 12.2913 101.347 10.9203 105.524 9.41479C107.924 8.54963 109.939 8.2183 112.296 6.94946Z" fill="#6C6C6C"/>
<path d="M91.1206 18.6926C95.0273 18.7535 95.2922 20.2406 100.152 19.5213C99.6272 19.7326 98.4022 20.2326 97.9006 20.2925C94.7022 20.6748 92.5489 19.9018 89.5389 21.7548C86.9373 22.8241 84.1423 22.4748 81.4756 21.9028C86.6173 21.3865 87.0306 21.5826 91.1206 18.6926Z" fill="#484848"/>
<path d="M112.286 30.3115C112.16 26.2664 111.775 24.6092 110.31 20.9712C112.73 24.0859 112.346 25.7645 115.511 29.0355C114.651 29.3987 113.126 30.0924 112.286 30.3115Z" fill="#484848"/>
<path d="M45.1184 28.5729C44.7045 26.6399 45.6702 22.8621 45.9227 20.7176C46.2679 17.7832 46.758 14.7766 47.1378 11.8357C47.3187 10.4351 47.7997 9.69374 49.1295 9.10407C54.1353 6.95307 58.847 4.80607 63.8079 2.49824C73.6774 -2.09326 85.6347 0.778746 95.9647 2.20025C99.6197 2.70325 110.016 4.52791 112.295 6.94957C109.938 8.21841 107.923 8.54974 105.523 9.41491C101.346 10.9204 97.3564 12.2914 92.8264 12.3866C86.4647 12.4706 80.5175 11.9092 74.2074 11.6141C67.8259 11.3059 61.4337 11.2847 55.0504 11.5509C53.9825 11.5962 49.8382 11.6842 49.2652 12.3484C47.798 14.0494 46.2205 27.7764 45.1184 28.5729Z" fill="#BAB9B9"/>
<path d="M97.8252 6.00221C98.3818 5.80854 102.65 5.2112 103.483 5.15137C103.895 5.12187 105.29 5.54471 105.785 5.70637L106.992 6.64887C105.573 7.6087 104.063 8.0252 102.537 8.71354C98.7802 10.4069 94.7318 10.5317 90.6218 10.5334C90.5302 9.67954 90.1885 7.42854 90.3435 6.73538C91.3202 5.96571 96.3718 6.04104 97.8252 6.00221Z" fill="#8B8B8A"/>
<path d="M97.8252 6.00221C98.3819 5.80854 102.65 5.2112 103.484 5.15137C103.895 5.12187 105.29 5.54471 105.785 5.70637C103.122 5.70754 100.389 6.04904 97.8252 6.00221Z" fill="#A6A5A5"/>
<path d="M74.0532 0.78103C75.7275 0.73653 78.492 0.80803 80.277 0.801863C79.6043 0.897197 78.46 0.855196 77.745 0.851363C78.5687 1.20886 79.3853 1.5822 80.1945 1.9712C80.9207 1.7327 81.1673 1.58586 81.7723 1.8752L81.8823 2.26753C81.239 4.00003 78.2707 4.29053 76.6402 4.64386C76.4658 4.61553 73.6678 5.55203 73.3597 5.66386C72.0972 6.1222 71.6448 6.04187 70.3392 5.92537C64.5282 2.1632 70.9372 1.25353 74.0532 0.78103Z" fill="#A6A5A5"/>
<path d="M70.0172 14.3761C71.2156 14.3223 78.9002 14.818 79.8642 15.099C79.1386 15.3288 77.1751 15.1105 76.3519 15.1488C75.8029 15.1743 75.0927 15.3388 74.5482 15.4541C71.3699 15.524 69.7724 16.5466 67.7606 18.8748L67.5732 18.8848C67.6681 18.129 69.4379 14.9323 70.0172 14.3761Z" fill="#6C6C6C"/>
<path d="M115.512 29.0356C116.36 28.5946 117.355 28.3571 118.275 28.1401C117.219 29.1318 116.342 29.7053 115.115 30.4845L114.277 32.7453L115.012 32.9928C115.962 33.0556 116.434 33.1055 117.39 33.286C120.649 33.5508 123.895 33.9316 127.127 34.4275C127.085 35.867 127.102 36.4005 125.957 37.375C125.102 37.8781 120.299 40.0476 120.092 40.341L120.245 40.5053L118.649 41.1253C115.757 41.7483 112.255 42.4731 109.429 43.2665C108.314 43.5798 105.627 45.1185 104.285 45.6573C94.9802 46.3138 85.5319 45.7956 76.2072 45.8033C74.0387 45.8051 72.1254 47.1638 69.952 47.0751C63.939 46.2966 58.6499 45.6641 52.6057 46.9096C51.5834 47.1203 48.8225 47.5655 47.7715 47.5095C46.3552 47.1816 43.4755 47.2348 41.9212 47.2165C41.1587 47.6025 41.0359 47.5298 40.1619 47.5686L39.8237 47.5861L39.6207 47.5943L39.4745 47.7318C37.1515 47.7466 35.8829 47.4975 33.5807 47.043C33.658 48.4588 33.7844 49.3405 34.0187 50.7471L33.833 51.0423C33.6264 50.1336 33.4084 49.3313 33.3835 48.3941C33.2355 48.9588 33.245 50.7398 33.2324 51.4288C33.1442 50.9288 33.1155 50.3655 33.0744 49.8551C33.0462 48.4911 32.9539 44.8671 34.4419 44.1968C39.139 42.0801 43.9299 40.0908 48.6614 38.0165L51.6257 36.3843L52.149 36.0676C49.5877 35.2053 48.445 34.1111 46.9792 31.9285C49.7685 32.4586 52.5384 32.9163 55.366 33.1998C57.2794 33.3918 59.2397 33.4231 61.1399 33.6265C65.3125 33.8438 69.6307 33.7021 73.8004 33.8595C75.217 33.6426 80.1687 33.8271 82.0252 33.7183C84.8852 33.5508 88.5269 33.042 91.2635 33.023C92.5702 33.0391 100.962 33.0058 101.657 33.2575C102.847 33.2096 105.52 32.5688 106.789 32.2788C107.669 31.7656 111.164 30.709 112.287 30.3116C113.127 30.0925 114.652 29.3988 115.512 29.0356Z" fill="#A6A5A5"/>
<path d="M115.511 29.0356C116.36 28.5946 117.355 28.3571 118.275 28.1401C117.218 29.1318 116.341 29.7053 115.115 30.4845L114.276 32.7453C111.193 33.8135 106.475 35.6136 103.406 36.2373C100.563 36.8153 95.2278 36.8955 92.2212 36.9955C83.1228 37.338 74.0122 37.3138 64.9142 36.9231C62.7802 36.8345 60.6487 36.692 58.5219 36.496C56.8249 36.3333 53.7035 35.8165 52.1483 36.0676C49.587 35.2053 48.4443 34.1111 46.9785 31.9285C49.7678 32.4586 52.5377 32.9163 55.3653 33.1998C57.2787 33.3918 59.239 33.4231 61.1392 33.6265C65.3118 33.8438 69.63 33.7021 73.7997 33.8595C75.2164 33.6426 80.168 33.8271 82.0245 33.7183C84.8845 33.5508 88.5262 33.042 91.2628 33.023C92.5695 33.0391 100.961 33.0058 101.656 33.2575C102.846 33.2096 105.52 32.5688 106.788 32.2788C107.668 31.7656 111.163 30.709 112.286 30.3116C113.126 30.0925 114.651 29.3988 115.511 29.0356Z" fill="#373737"/>
<path d="M61.1393 33.6265C65.3119 33.8438 69.6301 33.7021 73.7998 33.8595C72.2533 34.2925 61.7569 34.3578 60.0449 33.9403L60.1451 33.796L61.1393 33.6265Z" fill="#1D1D1D"/>
<path d="M106.788 32.2786C106.348 33.4246 102.796 33.5719 101.656 33.2572C102.846 33.2094 105.52 32.5686 106.788 32.2786Z" fill="#1D1D1D"/>
<path d="M52.1488 36.0677C53.704 35.8165 56.8253 36.3334 58.5223 36.496C60.6491 36.692 62.7806 36.8345 64.9146 36.9232C74.0126 37.3139 83.1233 37.338 92.2216 36.9955C95.2283 36.8955 100.563 36.8154 103.407 36.2374C106.475 35.6137 111.193 33.8135 114.277 32.7454L115.012 32.9929C115.962 33.0557 116.433 33.1055 117.39 33.286C117.01 33.4985 116.948 33.5832 116.663 33.8744C115.435 35.1249 114.07 35.8332 112.472 36.5165C110.177 37.4975 107.83 38.3507 105.385 38.8957C103.835 39.2409 102.167 39.3499 100.622 39.6647C98.2533 39.9997 92.625 40.0632 90.0116 40.1409C80.0068 40.4797 69.9905 40.3055 60.0026 39.6195C56.652 39.3812 53.2931 38.7372 50.183 38.5225L50.0251 38.5125L48.6611 38.0165L51.6255 36.3844L52.1488 36.0677Z" fill="#373737"/>
<path d="M52.1493 36.0677C53.7045 35.8165 56.8258 36.3334 58.5228 36.496C60.6497 36.692 62.7812 36.8345 64.9152 36.9232C74.0132 37.3139 83.1238 37.338 92.2221 36.9955C95.2288 36.8955 100.564 36.8154 103.407 36.2374C106.475 35.6137 111.194 33.8135 114.277 32.7454L115.012 32.9929C109.254 38.0074 97.6588 38.0612 90.3371 38.2674C80.7788 38.5992 71.211 38.462 61.6665 37.8562C59.0152 37.6727 53.9961 37.281 51.626 36.3844L52.1493 36.0677Z" fill="#1D1D1D"/>
<path d="M117.39 33.2861C120.649 33.551 123.895 33.9318 127.127 34.4276C127.085 35.8671 127.102 36.4006 125.957 37.3751C125.102 37.8783 120.299 40.0478 120.092 40.3411L120.245 40.5055L118.649 41.1255C116.9 40.0598 107.032 43.4448 104.81 44.349C103.445 42.8608 102.02 41.0228 100.622 39.6648C102.167 39.35 103.835 39.241 105.385 38.8958C107.83 38.3508 110.177 37.4976 112.472 36.5166C114.07 35.8333 115.435 35.125 116.664 33.8745C116.949 33.5833 117.01 33.4986 117.39 33.2861Z" fill="#8B8B8A"/>
<path d="M48.6614 38.0166L50.0254 38.5126C49.3934 39.1319 48.0372 39.5056 47.2227 39.9279C44.5407 41.3186 37.9674 43.8349 35.9225 45.7363C38.0319 47.0138 39.4445 47.2018 41.9212 47.2166C41.1587 47.6026 41.0359 47.5299 40.1619 47.5688L39.8237 47.5863L39.6207 47.5944L39.4745 47.7319C37.1515 47.7468 35.8829 47.4976 33.5807 47.0431C33.658 48.4589 33.7844 49.3406 34.0187 50.7473L33.833 51.0424C33.6264 50.1338 33.4084 49.3314 33.3835 48.3943C33.2355 48.9589 33.245 50.7399 33.2324 51.4289C33.1442 50.9289 33.1155 50.3656 33.0744 49.8553C33.0462 48.4913 32.9539 44.8673 34.4419 44.1969C39.139 42.0803 43.9299 40.0909 48.6614 38.0166Z" fill="#CDCCCD"/>
<path d="M69.8567 45.2681C70.3629 45.1534 72.1146 45.0946 72.6072 45.3637C72.1022 45.6482 71.5591 45.6256 70.9667 45.6732C69.9786 45.6757 69.1122 45.7166 68.1357 45.5512C68.6064 45.3252 69.3114 45.3151 69.8567 45.2681Z" fill="#6C6C6C"/>
<path d="M72.4682 43.7287C73.2416 43.6965 74.0396 43.7078 74.7796 43.9322L74.6029 44.0548C73.8942 44.067 72.6925 44.1495 72.0605 43.9572L72.4682 43.7287Z" fill="#6C6C6C"/>
<path d="M127.127 34.4272C127.848 34.6691 128.132 34.7176 128.735 35.1541C130.472 38.7072 132.763 43.7092 133.983 47.5324C134.323 48.6002 132.825 51.8657 132.278 53.0841C130.015 53.1524 129.793 55.2057 128.377 55.8807C126.915 55.9624 124.665 52.2457 123.882 51.0269C124.218 52.8707 125.08 56.3307 124.02 57.9341C122.278 59.1224 112.332 62.8891 110.127 63.1707C108.37 63.3941 102.975 62.9141 100.773 63.3308C97.3615 63.9758 93.9132 65.1141 90.5949 66.1041C87.8582 66.8207 82.0765 68.7474 79.6244 68.9057C79.0567 68.6107 75.804 69.1891 74.9285 69.1874C68.5245 69.1774 63.664 68.5991 57.3459 70.1424C52.5065 71.3257 44.7684 70.0274 40.002 68.9107C38.6584 68.5957 34.0795 66.1124 33.2949 66.1674L32.9434 65.5857L33.2504 65.1191C33.224 65.1257 41.2867 67.2908 42.6765 67.4141C48.121 67.8941 55.2832 68.4607 60.5499 67.0691C60.8554 65.6607 61.455 61.5541 62.8455 61.1324C62.683 62.1657 62.8782 62.6574 63.141 63.6757C63.2345 64.2257 63.6269 65.6441 64.0415 65.8957C65.5845 66.8341 70.7802 66.8191 72.6185 66.8524C75.8254 66.9108 80.7849 66.8291 83.6099 65.6707C84.7965 64.9924 85.8999 63.6024 87.2982 63.3824C91.5865 62.7124 98.3299 63.1324 101.663 59.8857C102.78 56.5807 102.648 48.3741 104.285 45.6571C105.627 45.1182 108.313 43.5796 109.428 43.2662C112.255 42.4729 115.757 41.7481 118.648 41.1251L120.245 40.5051L120.092 40.3407C120.298 40.0474 125.102 37.8779 125.957 37.3747C127.102 36.4002 127.085 35.8667 127.127 34.4272Z" fill="#484848"/>
<path d="M125.957 37.375L126.57 37.622C124.668 38.7548 122.402 39.9542 120.245 40.5053L120.092 40.341C120.298 40.0477 125.102 37.8782 125.957 37.375Z" fill="#BCBBBB"/>
<path d="M127.127 34.4272C127.849 34.6691 128.132 34.7176 128.735 35.1541C128.087 36.4602 127.775 36.7951 126.57 37.6217L125.957 37.3747C127.102 36.4002 127.085 35.8667 127.127 34.4272Z" fill="#A6A5A5"/>
<path d="M120.159 41.2725C122.781 42.8471 122.853 45.3426 122.893 48.2025L122.636 48.2655C122.273 47.8473 119.766 41.9316 119.756 41.6428L120.159 41.2725Z" fill="#373737"/>
<path d="M33.0738 49.8553C33.1149 50.3656 33.1436 50.929 33.2318 51.429C33.2444 50.74 33.2349 48.959 33.3829 48.3943C33.4078 49.3315 33.6258 50.1338 33.8324 51.0424L34.0181 50.7473C34.5356 52.8545 34.6181 55.2761 34.7136 57.4461C34.8266 60.0194 34.9369 62.6711 32.8089 64.4661C32.6228 63.4861 32.8921 51.286 33.0738 49.8553Z" fill="#BCBBBB"/>
<path d="M69.8218 55.6294C68.9495 56.4311 67.7083 57.4827 66.986 58.6677C66.1706 60.0044 65.6701 62.9711 64.9551 64.4494C64.8196 64.4861 64.684 64.5227 64.5483 64.5594C63.8926 64.4211 63.67 64.1327 63.141 63.6761C62.8781 62.6577 62.683 62.1661 62.8455 61.1327C64.797 60.2544 65.9766 57.2877 69.8218 55.6294Z" fill="#BCBBBB"/>
<path d="M41.9203 47.2166C43.4746 47.2349 46.3543 47.1817 47.7706 47.5096C46.2608 47.6274 40.6688 48.0716 39.4736 47.7319L39.6198 47.5944L39.8228 47.5862L40.161 47.5687C41.035 47.5299 41.1578 47.6026 41.9203 47.2166Z" fill="#BCBBBB"/>
<path d="M43.5063 54.0477C46.46 54.001 47.1405 55.206 50.0131 55.656C51.5556 55.8994 53.745 55.241 54.6531 55.406C53.4981 55.876 51.313 56.3544 50.0363 56.6727C47.2575 56.826 46.7323 55.6094 44.3131 55.3394C43.4688 55.246 40.7533 56.4227 39.4668 56.3127L39.5601 56.091C40.8838 55.241 42.024 54.571 43.5063 54.0477Z" fill="#484848"/>
<path d="M67.7862 108.646C67.8678 104.538 68.1533 100.206 67.9413 95.5561C67.6435 89.0178 65.3935 80.1578 66.3302 73.4128C66.4098 72.8378 67.7617 71.7794 68.3508 71.6727C72.1718 70.9877 76.5772 70.8027 80.4685 70.3144C83.0867 70.0061 85.695 69.6344 88.295 69.2011C93.675 68.2644 105.858 65.5078 110.898 67.9511C114.12 72.1611 115.153 80.6061 116.448 85.7977C116.795 87.1894 117.313 94.4028 117.737 94.9761C115.97 95.7894 109.925 97.4911 109.203 98.6927C108.11 100.321 107.522 101.623 106.607 103.321C103.405 104.394 100.205 105.419 96.975 106.404C95.9884 106.706 95.1333 106.941 94.5867 107.868C94.3567 108.563 93.4717 111.436 93.1834 111.863C92.2067 111.474 89.5 111.819 88.345 111.751C84.2583 111.513 70.1695 112.321 67.7862 108.646Z" fill="#484848"/>
<path d="M70.6676 72.7909C76.4369 72.1959 82.1934 71.4809 87.9334 70.6459C90.9884 70.1959 105.69 67.1559 107.27 69.1609C107.705 70.6626 105.473 73.5259 104.297 74.3259L104.07 74.5476C104.172 76.4492 105.102 79.1359 105.455 81.0859C106.3 85.7659 104.22 89.7726 103.148 94.1892C97.5734 96.9576 89.5767 101.471 83.9417 104.033C82.5434 104.669 71.9339 103.633 69.9176 102.984C69.5996 104.091 69.2827 105.261 68.9244 106.351C69.1117 104.466 69.2507 102.941 69.2957 101.038C69.2681 99.7209 69.2456 98.4959 69.2859 97.1792C69.0499 91.2742 68.7744 85.3009 68.2637 79.4175C68.0101 76.4959 68.2026 74.8226 70.6676 72.7909Z" fill="#6C6C6C"/>
<path d="M70.6676 72.7909C76.4369 72.1959 82.1934 71.4809 87.9334 70.6459C90.9884 70.1959 105.69 67.1559 107.27 69.1609C107.705 70.6626 105.473 73.5259 104.297 74.3259L104.07 74.5476C102.948 74.8459 102.36 74.9592 101.21 75.1159C101.135 75.1342 101.058 75.1542 100.983 75.1709C99.0684 75.6042 96.8384 75.5759 94.8734 75.7009C89.8084 76.0209 84.7451 76.2559 79.6836 76.6475C77.1687 76.8425 74.3296 76.8976 71.9014 77.5892C70.9627 77.8559 69.9122 78.3009 69.3597 79.1526C68.6631 80.2242 69.5621 90.5342 69.6152 92.4509C69.5924 93.4442 69.6814 96.4692 69.2859 97.1792C69.0499 91.2742 68.7744 85.3009 68.2637 79.4175C68.0101 76.4959 68.2026 74.8226 70.6676 72.7909Z" fill="#A4A4A3"/>
<path d="M101.209 75.1159L100.951 74.9776L101.086 74.7326C101.854 74.4909 103.466 74.3543 104.296 74.3259L104.069 74.5476C102.948 74.8459 102.359 74.9593 101.209 75.1159Z" fill="#CDCCCD"/>
<path d="M69.6159 92.4509C69.8566 93.7393 70.0468 100.099 69.2964 101.038C69.2688 99.7209 69.2463 98.4959 69.2866 97.1793C69.6821 96.4693 69.5931 93.4443 69.6159 92.4509Z" fill="#8B8B8A"/>
<path d="M82.3767 90.071C82.1783 89.1826 82.2717 88.546 82.4083 87.6926C83.445 81.2426 83.3117 79.971 90.24 78.9526C93.6883 78.446 95.3783 78.441 98.93 78.871C97.1733 79.2777 94.365 79.4493 92.4517 79.636L93.535 79.811L93.5133 79.971C90.445 81.441 89.6483 82.4176 87.1017 84.5126C86.68 84.8593 85.5 85.3526 84.94 85.716L84.85 85.8876C84.2933 86.9793 83.2233 90.1893 82.4967 90.6576C82.3783 90.3126 82.385 90.4243 82.3767 90.071Z" fill="#484848"/>
<path d="M84.376 84.4524C87.0793 83.0307 89.2026 80.1574 92.451 79.6357L93.5343 79.8108L93.5126 79.9707C90.4443 81.4407 89.6476 82.4174 87.101 84.5124C86.6793 84.8591 85.4993 85.3524 84.9393 85.7157L84.8493 85.8874C84.2926 86.9791 83.2226 90.1891 82.496 90.6574C82.3776 90.3124 82.3843 90.4241 82.376 90.0707C82.896 88.4741 83.646 85.8491 84.376 84.4524Z" fill="#8B8B8A"/>
<path d="M108.704 71.156C110.762 71.7593 112.361 76.1343 112.546 78.1243C112.107 77.7127 112.119 77.436 111.906 76.881C111.122 74.8327 110.002 72.9143 108.704 71.156Z" fill="#1D1D1D"/>
<path d="M123.881 51.0271C124.665 52.2459 126.915 55.9626 128.376 55.8809C129.793 55.2059 130.015 53.1526 132.278 53.0843C130.138 57.0876 129.8 57.3126 126.081 60.0143C126.666 60.2709 127.488 60.6626 128.071 60.8559C129.838 61.4893 135.691 63.7543 137.288 64.6043C138.82 65.1059 142.26 66.5259 143.43 67.5459C144.758 70.1859 145.685 74.3609 146.516 77.2809C147.285 79.9776 148.146 82.7726 148.871 85.4659L149.111 86.0993L149.238 86.1276C151.505 86.4259 158.703 88.8693 159.855 90.6593C160.651 92.7276 163.971 103.313 163.81 105.133C163.076 106.211 158.586 106.731 157.208 106.778C154.46 106.771 152.083 106.144 149.325 106.166C148.938 105.748 147.93 103.081 147.225 102.509C146.161 100.516 144.466 97.2343 143.231 95.4693C141.588 93.9343 131.753 92.3493 129.256 92.3343L129.565 92.1159L129.596 91.7459C128.651 90.8543 122.148 91.7626 120.18 91.6793C118.935 89.1293 118.585 86.7826 117.903 84.0426C117.643 82.6776 116.638 80.6243 116.533 79.3276C116.166 74.7993 113.883 71.3693 113.966 66.8159C115.895 64.5109 118.758 64.4193 121.466 63.0293C123.253 62.1126 123.51 61.8943 125.143 60.5743C121.375 61.3909 115.313 64.3243 111.505 65.3009C109.956 65.6976 103.461 65.4293 101.346 65.4593C98.1581 65.5026 93.2581 66.6326 90.5947 66.1043C93.9131 65.1143 97.3614 63.9759 100.773 63.3309C102.975 62.9143 108.37 63.3943 110.126 63.1709C112.331 62.8893 122.278 59.1226 124.02 57.9343C125.08 56.3309 124.218 52.8709 123.881 51.0271Z" fill="#373737"/>
<path d="M143.43 67.5459C144.758 70.1859 145.685 74.3609 146.516 77.2809C147.285 79.9776 148.146 82.7726 148.871 85.4659L149.111 86.0992L148.983 86.1426C147.566 86.0876 143.418 90.1376 141.676 91.1942C140.638 91.2159 139.6 91.1709 138.568 91.0559C137.696 90.9576 134.461 90.4876 133.926 89.9426C132.508 88.4992 132.945 84.0159 131.93 81.9659C130.968 80.0226 129.793 78.7359 128.538 77.1726C129.113 74.9209 129.323 74.0326 129.25 71.7092C132.141 71.8092 139.5 69.7442 142.148 68.4109C142.233 68.3326 143.275 67.6492 143.43 67.5459Z" fill="#484848"/>
<path d="M143.43 67.5459C144.758 70.1859 145.685 74.3609 146.517 77.2809C147.285 79.9776 148.147 82.7726 148.872 85.4659C148.368 85.4776 148.233 85.5859 147.8 85.8126C146.992 85.1626 144.267 71.0042 142.148 68.4109C142.233 68.3326 143.275 67.6492 143.43 67.5459Z" fill="#8B8B8A"/>
<path d="M149.238 86.1274C151.505 86.4258 158.703 88.8691 159.855 90.6591C160.652 92.7275 163.972 103.312 163.81 105.132C163.077 106.211 158.587 106.731 157.208 106.777C157.01 106.637 156.627 105.844 156.33 105.632C154.633 104.431 152.437 104.234 150.525 103.416C149.623 101.696 147.403 96.3558 146.307 95.3558C146.255 94.7158 146.322 90.3075 146.448 89.8458C146.895 89.4891 147.308 89.1108 147.735 88.7308C148.312 87.8574 148.877 87.1074 149.238 86.1274Z" fill="#484848"/>
<path d="M149.238 86.1274C151.505 86.4258 158.703 88.8691 159.855 90.6591C159.046 91.2741 156.128 92.2808 155.05 92.6808C151.905 91.9325 149.631 91.8074 146.578 91.2758C147.053 90.3491 147.346 89.6974 147.735 88.7308C148.311 87.8574 148.876 87.1074 149.238 86.1274Z" fill="#6C6C6C"/>
<path d="M154.535 95.9392C155.678 96.8342 156.038 99.5609 156.222 100.958L155.928 100.881C155.057 99.4759 154.567 97.5942 154.535 95.9392Z" fill="#373737"/>
<path d="M128.072 60.856C129.838 61.4893 135.692 63.7543 137.288 64.6043C138.82 65.106 142.26 66.526 143.43 67.546C143.275 67.6493 142.233 68.3326 142.148 68.411C139.5 69.7443 132.142 71.8093 129.25 71.7093L128.903 71.561L126.325 70.4626L126.053 70.2643L122.607 68.7693C121.635 68.546 117.8 66.9193 117.21 66.056C117.673 65.386 126.253 62.191 128.072 60.856Z" fill="#807F80"/>
<path d="M137.288 64.6042C138.82 65.1059 142.26 66.5259 143.43 67.5459C143.275 67.6493 142.233 68.3326 142.148 68.4109C139.5 69.7443 132.142 71.8092 129.25 71.7092L128.903 71.5609L128.898 71.1676C131.093 71.3892 139.412 69.3976 140.488 67.4743C140.363 66.2376 137.717 65.9476 137.288 64.6042Z" fill="#C1C0C1"/>
<path d="M122.607 68.7692C123.626 68.4359 125.371 69.3009 126.031 70.0826L126.054 70.2642L122.607 68.7692Z" fill="#A6A5A5"/>
<path d="M126.325 70.4625C127.365 69.9575 127.942 70.5141 128.899 71.1675L128.904 71.5608L126.325 70.4625Z" fill="#A6A5A5"/>
<path d="M149.112 86.0994L149.239 86.1277C148.877 87.1077 148.312 87.8577 147.735 88.731C147.309 89.111 146.895 89.4894 146.449 89.846C145.932 90.336 145.517 90.721 145.075 91.2894C144.35 92.2227 143.872 94.3444 142.825 94.7244L142.7 94.4827C143.195 91.7277 147.115 88.0677 148.984 86.1427L149.112 86.0994Z" fill="#1D1D1D"/>
<path d="M116.855 70.0759L117.18 70.3376C117.475 71.9926 118.699 75.7509 118.534 77.0276C117.924 75.9109 116.675 71.3409 116.855 70.0759Z" fill="#1D1D1D"/>
<path d="M23.3073 76.2558C25.9003 75.1058 29.558 73.4408 32.0453 72.1108C32.8735 73.5242 33.9842 73.5575 33.9038 75.4958C33.1503 79.7825 33.216 84.8242 32.4413 88.9992C32.1268 90.6925 29.3412 94.5459 28.6942 96.6642C27.4457 98.7909 28.4672 100.279 28.4337 102.768C28.463 104.291 28.5023 105.396 28.6692 106.903L28.6862 107.741C26.6077 107.974 24.6308 107.509 22.4068 107.804C20.0897 108.111 14.3377 110.283 12.2945 109.966C10.4072 109.743 1.69667 107.306 0 106.536C0.8725 103.741 2.74466 99.7759 4.04066 97.1025C5.53366 95.9709 8.51549 94.8125 10.4673 94.9492L10.8847 94.8392C11.2402 94.0108 11.4855 91.1825 11.6972 90.0609C12.2807 86.9659 12.6853 83.0292 13.5108 80.0392C13.6635 79.2075 13.9308 78.2258 14.1358 77.3892L14.616 77.8675L14.8073 77.2042C15.7897 76.2108 19.9952 76.7958 21.8175 76.6942L22.0595 76.6808L23.3073 76.2558Z" fill="#6C6C6C"/>
<path d="M4.04066 97.1026C5.53366 95.9709 8.51549 94.8126 10.4673 94.9493C11.8487 95.4293 15.746 96.4093 17.096 96.6443C18.2455 96.9759 19.493 97.3609 20.647 97.6309C23.7513 98.1242 23.4642 105.871 26.328 106.871C26.6542 106.986 28.2085 106.918 28.6692 106.903L28.6862 107.741C26.6077 107.974 24.6308 107.509 22.4068 107.804C20.0897 108.111 14.3377 110.283 12.2945 109.966C10.4072 109.743 1.69667 107.306 0 106.536C0.8725 103.741 2.74466 99.7759 4.04066 97.1026Z" fill="#8B8B8A"/>
<path d="M20.6464 97.6309C23.7508 98.1242 23.4636 105.871 26.3274 106.871C26.6536 106.986 28.2079 106.918 28.6686 106.903L28.6856 107.741C26.6071 107.974 24.6303 107.509 22.4063 107.804C20.0891 108.111 14.3371 110.283 12.2939 109.966C13.1164 109.349 15.0768 101.176 15.5733 99.7809C17.2638 99.2309 19.0639 98.4375 20.6464 97.6309Z" fill="#484848"/>
<path d="M4.04102 97.1026C5.53402 95.9709 8.51585 94.8126 10.4677 94.9493C11.849 95.4293 15.7464 96.4093 17.0964 96.6443C18.2459 96.9759 19.4933 97.3609 20.6473 97.6309C19.0648 98.4376 17.2647 99.2309 15.5742 99.7809C13.838 99.5809 5.42735 97.7193 4.04102 97.1026Z" fill="#A6A5A5"/>
<path d="M14.6155 77.8675L14.8068 77.2042C15.7891 76.2109 19.9946 76.7959 21.817 76.6942L22.059 76.6809C21.8275 78.3325 20.2961 80.4559 19.7225 82.0459C19.3726 83.0159 19.2991 84.2209 19.018 85.2275C18.288 88.9109 17.987 93.2342 17.0955 96.6442C15.7455 96.4092 11.8481 95.4292 10.4668 94.9492L10.8841 94.8392C11.2396 94.0109 11.485 91.1825 11.6966 90.0609C12.2801 86.9659 12.6848 83.0292 13.5103 80.0392C13.663 79.2075 13.9303 78.2259 14.1353 77.3892L14.6155 77.8675Z" fill="#8B8B8A"/>
<path d="M14.1357 77.3894L14.6159 77.8677C14.4236 78.7794 14.3619 79.2094 13.9509 80.0677C13.7546 80.0694 13.6894 80.0927 13.5107 80.0394C13.6634 79.2077 13.9307 78.2261 14.1357 77.3894Z" fill="#A6A5A5"/>
<path d="M23.3074 76.2559C23.6034 77.3175 21.9899 81.0759 21.2276 82.1225C19.2752 84.7992 19.8879 87.7075 19.4577 90.9592C19.0861 88.9625 19.4184 87.0992 19.0186 85.2275C19.2997 84.2209 19.3732 83.0159 19.7231 82.0459C20.2967 80.4559 21.8281 78.3325 22.0596 76.6809L23.3074 76.2559Z" fill="#484848"/>
<path d="M90.5947 66.1042C93.258 66.6325 98.158 65.5025 101.346 65.4592C103.461 65.4292 109.956 65.6975 111.505 65.3009C115.313 64.3242 121.375 61.3909 125.143 60.5742C123.51 61.8942 123.253 62.1125 121.466 63.0292C118.758 64.4192 115.895 64.5109 113.966 66.8159C113.883 71.3692 116.166 74.7992 116.533 79.3276C116.638 80.6242 117.643 82.6775 117.903 84.0425C118.585 86.7825 118.935 89.1292 120.18 91.6792C122.148 91.7626 128.651 90.8542 129.596 91.7459L129.565 92.1159L129.256 92.3342C124.675 92.7559 122.043 93.5226 117.736 94.9759C117.313 94.4026 116.795 87.1892 116.448 85.7975C115.153 80.6059 114.12 72.1609 110.898 67.9509C105.858 65.5076 93.6747 68.2642 88.2947 69.2009C85.6947 69.6342 83.0863 70.0059 80.4682 70.3142C76.5768 70.8025 72.1715 70.9875 68.3505 71.6725C67.7613 71.7792 66.4095 72.8376 66.3298 73.4126C65.3932 80.1576 67.6432 89.0176 67.941 95.5559C68.153 100.206 67.8675 104.538 67.7858 108.646L67.3763 108.271C67.1777 108.538 67.055 108.724 66.8793 109.006C66.8925 102.176 67.307 95.1826 66.3852 88.3942C66.2438 87.3542 65.1058 84.1292 64.7522 82.3359C64.7853 79.2709 64.7942 75.4476 63.349 72.8026C62.5652 72.3576 62.0227 72.0692 61.1005 72.0576C56.0002 71.9959 50.9648 72.4809 45.8708 71.7375C43.4225 71.3809 41.6457 70.2559 40.6287 73.3042C42.2003 72.7226 45.7687 73.5642 47.5593 73.8775C46.3005 79.5692 43.3127 85.9509 42.5212 91.7975L43.234 92.4425C43.4163 92.8075 44.1877 94.0342 44.2073 94.2659C43.3588 93.8859 42.4487 93.4409 41.5652 93.1809C41.2015 94.8259 41.0437 95.1759 39.732 96.2559C38.0867 96.0875 35.9303 95.5426 34.6092 94.5176C33.8212 98.6842 35.0287 103.694 34.2877 107.554L33.912 107.326C32.1385 107.609 30.46 107.534 28.6857 107.741L28.6687 106.903C28.5018 105.396 28.4625 104.291 28.4332 102.768C28.4667 100.279 27.4452 98.7909 28.6937 96.6642C29.3407 94.5459 32.1263 90.6926 32.4408 88.9992C33.2155 84.8242 33.1498 79.7826 33.9033 75.4959C33.9837 73.5576 32.873 73.5242 32.0448 72.1109L32.2897 71.9959C33.5433 71.3976 34.6712 70.8476 35.8897 70.1842C35.1105 68.7792 34.0727 67.7209 33.2947 66.1675C34.0793 66.1125 38.6582 68.5959 40.0018 68.9109C44.7682 70.0276 52.5063 71.3259 57.3457 70.1426C63.6638 68.5992 68.5243 69.1775 74.9283 69.1875C75.8038 69.1892 79.0565 68.6109 79.6242 68.9059C82.0763 68.7475 87.858 66.8209 90.5947 66.1042Z" fill="#1D1D1D"/>
<path d="M33.2947 66.1676C34.0793 66.1126 38.6582 68.596 40.0018 68.911C44.7682 70.0277 52.5063 71.326 57.3457 70.1427C63.6638 68.5993 68.5243 69.1776 74.9283 69.1876C75.8038 69.1893 79.0565 68.611 79.6242 68.906C76.6117 69.7893 67.8273 69.2726 64.2602 69.336C60.9742 69.3943 59.5908 70.136 56.7567 70.5127C51.2323 71.246 42.7323 70.4943 37.681 68.296C38.5548 69.8793 39.2413 71.7043 38.508 73.5343C36.9395 77.571 36.7765 81.731 35.6915 85.9477C34.8588 89.1843 32.8603 92.6477 32.1497 95.6143C31.1677 99.7127 33.0683 102.776 31.0608 107.168C31.5583 107.321 32.8455 107.078 33.912 107.326C32.1385 107.609 30.46 107.534 28.6857 107.741L28.6687 106.903C28.5018 105.396 28.4625 104.291 28.4332 102.768C28.4667 100.279 27.4452 98.791 28.6937 96.6643C29.3407 94.546 32.1263 90.6927 32.4408 88.9993C33.2155 84.8243 33.1498 79.7827 33.9033 75.496C33.9837 73.5577 32.873 73.5243 32.0448 72.111L32.2897 71.996C33.5433 71.3977 34.6712 70.8477 35.8897 70.1843C35.1105 68.7793 34.0727 67.721 33.2947 66.1676Z" fill="#373737"/>
<path d="M28.6937 96.6643L29.124 96.9276C29.2708 98.0676 29.4417 102.811 28.8318 103.623C28.5422 103.244 28.5683 103.234 28.4332 102.768C28.4667 100.279 27.4452 98.791 28.6937 96.6643Z" fill="#484848"/>
<path d="M32.0449 72.1108L32.2898 71.9958C33.1434 72.2558 34.3013 72.4842 34.6731 73.3725C35.0366 74.2409 35.1216 75.8058 34.6189 76.6258L34.3796 76.6125C34.2478 76.2842 34.0701 75.7892 33.9034 75.4958C33.9838 73.5575 32.8731 73.5242 32.0449 72.1108Z" fill="#484848"/>
<path d="M40.6289 73.3042C42.2005 72.7225 45.7689 73.5642 47.5595 73.8775C46.3007 79.5692 43.3129 85.9508 42.5214 91.7975L43.2342 92.4425C43.4165 92.8075 44.1879 94.0342 44.2075 94.2658C43.359 93.8858 42.4489 93.4408 41.5654 93.1808C41.2017 94.8258 41.0439 95.1758 39.7322 96.2558C38.0869 96.0875 35.9305 95.5425 34.6094 94.5175L34.8887 93.8775C35.5049 92.2275 36.266 90.8542 36.818 89.0708C38.5912 84.2942 39.3097 78.4275 40.6289 73.3042Z" fill="#8B8B8A"/>
<path d="M37.6829 88.5641L37.8907 88.4658C38.7984 89.0642 41.985 91.6008 42.5214 91.7975L43.2342 92.4425C43.4165 92.8075 44.1879 94.0342 44.2076 94.2658C43.3591 93.8858 42.4489 93.4408 41.5654 93.1808C41.2017 94.8258 41.0439 95.1758 39.7322 96.2558C38.0869 96.0875 35.9305 95.5425 34.6094 94.5175L34.8887 93.8775C35.5049 92.2275 36.266 90.8542 36.818 89.0708C37.1012 88.9625 37.4172 88.7341 37.6829 88.5641Z" fill="#BCBBBB"/>
<path d="M37.6838 88.5642C37.0793 90.3025 37.4471 93.3009 34.8896 93.8775C35.5058 92.2275 36.267 90.8542 36.819 89.0709C37.1021 88.9625 37.4182 88.7342 37.6838 88.5642Z" fill="#A6A5A5"/>
<path d="M41.5648 93.1809C42.4483 93.4409 43.3585 93.8859 44.207 94.2659C48.4705 97.3092 54.6875 94.4642 58.7435 95.6259C58.4798 95.9359 58.1563 96.1942 58.1387 96.5326C58.0418 98.3976 58.0607 100.216 57.9552 102.096C57.8008 104.848 56.7455 109.656 56.7528 112.176C54.9898 112.144 53.2273 112.091 51.4655 112.018C50.7077 111.899 50.201 111.926 49.447 111.936C45.9138 111.933 42.317 112.158 38.9725 110.971C37.686 110.564 35.5113 110.028 34.541 109.099C34.1245 108.699 34.2707 108.169 34.2873 107.554C35.0283 103.694 33.8208 98.6842 34.6088 94.5176C35.93 95.5426 38.0863 96.0876 39.7317 96.2559C41.0433 95.1759 41.2012 94.8259 41.5648 93.1809Z" fill="#6C6C6C"/>
<path d="M34.6088 94.5176C35.93 95.5426 38.0863 96.0876 39.7317 96.2559C38.8655 97.3076 39.1755 97.3059 39.0298 98.4592C38.8025 100.259 39.5395 110.083 38.9725 110.971C37.686 110.564 35.5113 110.028 34.541 109.099C34.1245 108.699 34.2707 108.169 34.2873 107.554C35.0283 103.694 33.8208 98.6842 34.6088 94.5176Z" fill="#8B8B8A"/>
<path d="M50.8233 109.259C51.1499 110.191 51.2856 111.053 51.4658 112.018C50.7079 111.899 50.2013 111.926 49.4473 111.936C49.8766 110.963 50.3518 110.191 50.8233 109.259Z" fill="#484848"/>
<path d="M47.5597 73.8774C48.9765 73.9891 57.0198 74.2941 57.7063 75.1691C58.9937 76.8124 60.225 89.7375 57.9503 91.3108C56.8117 92.0991 51.4911 93.1175 49.8298 93.1808C48.6018 93.2941 45.565 92.7841 44.9731 93.1008C44.4136 92.9875 43.7761 92.6724 43.2343 92.4424L42.5215 91.7974C43.313 85.9508 46.3008 79.5691 47.5597 73.8774Z" fill="#6C6C6C"/>
<path d="M64.7528 82.3359C65.1065 84.1293 66.2444 87.3543 66.3858 88.3943C67.3076 95.1826 66.8931 102.176 66.88 109.006C66.148 109.731 65.5896 110.163 64.6918 110.673C64.5431 108.716 64.8486 107.063 65.031 105.071C65.3293 101.816 65.4911 97.7409 65.162 94.4876C65.0936 93.8126 64.1065 91.5726 63.7933 90.8826C63.3041 90.5026 63.2741 90.5026 62.6605 90.3293L62.5088 90.2893C62.8215 89.656 63.8051 89.1509 64.0463 88.6609C64.9701 86.7843 64.2108 84.3376 64.7528 82.3359Z" fill="#484848"/>
<path d="M43.2344 92.4426C43.7762 92.6726 44.4137 92.9876 44.9732 93.101C47.5355 94.3393 48.4532 94.4726 51.247 95.0376C51.7764 94.8426 53.558 94.1876 54.0275 94.1276C56.8572 93.7626 58.0195 93.8893 60.7982 93.0943C60.0605 94.1626 59.671 94.706 58.7442 95.626C54.6882 94.4643 48.4712 97.3093 44.2077 94.266C44.188 94.0343 43.4167 92.8076 43.2344 92.4426Z" fill="#8B8B8A"/>
<path d="M129.257 92.3342C131.753 92.3492 141.588 93.9342 143.232 95.4692C144.467 97.2342 146.162 100.516 147.225 102.509C147.93 103.081 148.938 105.748 149.325 106.166C149.62 106.721 150.798 108.768 150.558 109.216C148.925 112.271 142.18 113.598 139.168 114.276C134.005 115.438 129.512 115.783 124.338 116.294C122.818 116.438 121.087 117.514 119.34 117.294C115.898 117.428 112.353 116.986 109.033 117.088C106.372 117.169 103.99 117.839 100.995 117.749C100.258 117.306 98.7382 116.903 97.8182 116.563C97.3432 116.124 97.2199 116.113 96.5949 115.866L96.4049 115.793L96.6549 115.524L96.6432 115.649L96.5999 115.478C95.5099 114.936 93.1965 114.001 92.7832 113.034L93.1832 111.863C93.4715 111.436 94.3565 108.563 94.5865 107.868C95.1332 106.941 95.9882 106.706 96.9749 106.404C100.205 105.419 103.405 104.394 106.607 103.321C107.522 101.623 108.11 100.321 109.203 98.6926C109.925 97.4909 115.97 95.7892 117.737 94.9759C122.043 93.5226 124.675 92.7559 129.257 92.3342Z" fill="#484848"/>
<path d="M129.256 92.3342C131.753 92.3492 141.588 93.9342 143.231 95.4692C142.31 95.7509 138.725 94.3709 137.46 94.2109C136.478 94.0876 135.445 93.8109 134.351 93.7409C132.115 95.9609 127.683 97.6259 125.043 99.5892C124.481 100.008 123.548 100.994 123.025 101.531C122.668 102.218 122.345 102.818 122.05 103.538L121.913 103.556C121.133 103.573 120.353 103.573 119.575 103.559C115.895 103.239 110.305 103.238 106.606 103.321C107.521 101.623 108.11 100.321 109.203 98.6926C109.925 97.4909 115.97 95.7892 117.736 94.9759C122.043 93.5226 124.675 92.7559 129.256 92.3342Z" fill="#A6A5A5"/>
<path d="M109.203 98.6926C109.53 99.5093 109.183 100.093 109.676 100.729C111.671 101.736 118.286 101.553 120.701 101.559C121.23 101.561 122.686 101.401 123.025 101.531C122.668 102.218 122.345 102.818 122.05 103.538L121.913 103.556C121.133 103.573 120.353 103.573 119.575 103.559C115.895 103.239 110.305 103.238 106.606 103.321C107.521 101.623 108.11 100.321 109.203 98.6926Z" fill="#BCBBBB"/>
<path d="M106.606 103.321C110.304 103.237 115.894 103.239 119.574 103.559C120.353 103.572 121.133 103.572 121.913 103.556L122.049 103.537C123.008 103.724 123.349 103.709 124.311 103.702C125.228 103.684 126.041 103.619 126.949 103.544C127.411 104.011 127.774 104.267 127.916 104.897L127.838 105.194C127.889 106.081 128.003 106.904 127.798 107.759L127.468 107.871C126.684 108.026 126.088 107.139 124.864 107.211C116.128 107.712 107.018 108.661 98.4676 110.586C97.5459 110.237 97.0593 109.851 96.2559 109.299C95.5176 108.946 95.1543 108.464 94.5859 107.867C95.1326 106.941 95.9876 106.706 96.9743 106.404C100.204 105.419 103.404 104.394 106.606 103.321Z" fill="#8B8B8A"/>
<path d="M106.606 103.321C110.304 103.237 115.894 103.239 119.574 103.559C114.928 105.151 110.899 105.951 106.119 106.966C103.826 107.454 98.0309 109.322 96.2559 109.299C95.5176 108.946 95.1543 108.464 94.5859 107.867C95.1326 106.941 95.9876 106.706 96.9743 106.404C100.204 105.419 103.404 104.394 106.606 103.321Z" fill="#A6A5A5"/>
<path d="M124.312 103.703C125.229 103.684 126.042 103.619 126.95 103.544C127.412 104.011 127.775 104.268 127.917 104.898L127.839 105.194C127.89 106.081 128.004 106.904 127.799 107.759L127.469 107.871C126.884 104.426 123.18 105.976 121.78 103.953L121.914 103.556L122.05 103.538C123.009 103.724 123.35 103.709 124.312 103.703Z" fill="#484848"/>
<path d="M124.312 103.703C125.228 103.684 126.042 103.619 126.95 103.544C127.412 104.011 127.775 104.268 127.917 104.898L127.838 105.194C127 104.463 125.615 104.358 124.312 103.703Z" fill="#6C6C6C"/>
<path d="M134.351 93.741C135.445 93.811 136.478 94.0876 137.46 94.211C138.725 94.371 142.31 95.751 143.231 95.4693C144.466 97.2343 146.161 100.516 147.225 102.509C146.043 102.039 144.325 98.266 143.171 96.7193C142.156 98.0276 140.901 99.4343 139.816 100.706C135.683 100.703 130.653 101.733 126.95 103.544C126.041 103.619 125.228 103.684 124.311 103.703C123.35 103.709 123.008 103.724 122.05 103.538C122.345 102.818 122.668 102.218 123.025 101.531C123.548 100.994 124.481 100.008 125.043 99.5893C127.683 97.626 132.115 95.961 134.351 93.741Z" fill="#6C6C6C"/>
<path d="M94.5865 107.867C95.1549 108.464 95.5182 108.946 96.2565 109.299C97.0599 109.851 97.5465 110.237 98.4682 110.586C97.5949 112.181 97.0949 114.684 96.5999 115.477C95.5099 114.936 93.1965 114.001 92.7832 113.034L93.1832 111.862C93.4715 111.436 94.3565 108.562 94.5865 107.867Z" fill="#6C6C6C"/>
<path d="M32.9436 65.5859L33.2951 66.1676C34.0731 67.7209 35.1109 68.7793 35.8901 70.1843C34.6716 70.8476 33.5437 71.3976 32.2901 71.996L32.0452 72.1109C29.5579 73.4409 25.9002 75.1059 23.3072 76.2559L22.0594 76.6809L21.8174 76.6943C19.9951 76.7959 15.7896 76.211 14.8072 77.2043L14.6159 77.8676L14.1357 77.3893C14.3037 76.8426 14.4856 76.3076 14.7286 75.7893C16.8439 71.2843 28.1719 67.3209 32.9436 65.5859Z" fill="#AEADAD"/>
<path d="M92.5101 114.103L92.7834 113.034C93.1968 114.001 95.5101 114.936 96.6001 115.478L96.6435 115.649L96.6551 115.524L96.4051 115.793L96.5951 115.866C97.2201 116.113 97.3434 116.124 97.8184 116.563C98.7384 116.903 100.258 117.306 100.995 117.749C100.425 117.793 99.9818 117.749 99.5401 118.083C97.3635 119.594 88.5085 119.601 85.7235 119.039C84.7401 118.766 81.2501 118.109 81.7534 116.689C82.1851 115.471 84.7801 114.306 85.9368 113.858C87.5735 113.221 88.3584 112.813 90.0034 113.501C90.5634 113.773 91.7734 114.316 92.2384 114.639C92.4718 114.366 92.3934 114.469 92.5101 114.103Z" fill="#6C6C6C"/>
<path d="M85.7235 119.039C84.7401 118.766 81.2501 118.109 81.7534 116.689C82.1851 115.471 84.7801 114.306 85.9368 113.858C87.5735 113.221 88.3584 112.813 90.0034 113.501C88.6918 115.923 87.5118 116.968 85.7235 119.039Z" fill="#A6A5A5"/>
<path d="M92.5099 114.103L92.7833 113.034C93.1966 114.001 95.51 114.936 96.6 115.478L96.6433 115.649L96.6549 115.524L96.4049 115.793L96.595 115.866C97.22 116.113 97.3433 116.124 97.8183 116.563C98.7383 116.903 100.258 117.306 100.995 117.749C100.425 117.793 99.9816 117.749 99.54 118.083C98.36 117.788 92.9933 115.463 92.2383 114.639C92.4716 114.366 92.3933 114.469 92.5099 114.103Z" fill="#101010"/>
<path d="M92.5098 114.103L92.7831 113.034C93.1964 114.001 95.5098 114.936 96.5998 115.478L96.6431 115.649L96.6548 115.524L96.4048 115.793L96.5948 115.866C97.2198 116.113 97.3431 116.124 97.8181 116.563C96.4381 116.113 93.4014 115.278 92.5098 114.103Z" fill="#484848"/>
</svg>
