<svg width="492" height="359" viewBox="0 0 492 359" fill="none" xmlns="http://www.w3.org/2000/svg">
<path d="M135.357 85.7187C134.115 79.9197 137.012 68.5862 137.77 62.1527C138.805 53.3497 140.275 44.3297 141.415 35.5072C141.957 31.3052 143.4 29.0812 147.39 27.3122C162.407 20.8592 176.542 14.4182 191.425 7.49472C221.033 -6.27978 256.905 2.33624 287.895 6.60074C298.86 8.10974 330.05 13.5837 336.885 20.8487C340.985 27.5622 344.891 34.3912 348.595 41.3282C355.111 53.2822 361.651 63.0377 358.73 77.5812C358.155 80.4377 357.16 82.5862 354.825 84.4207C351.655 87.3957 349.025 89.1162 345.345 91.4537L342.83 98.2362L345.035 98.9787C347.885 99.1672 349.301 99.3167 352.171 99.8582C361.945 100.653 371.685 101.795 381.38 103.283C383.545 104.008 384.395 104.154 386.205 105.463C391.415 116.123 398.29 131.129 401.95 142.598C402.97 145.802 398.475 155.598 396.835 159.253C390.415 171.263 389.401 171.938 378.246 180.043C380.001 180.813 382.465 181.988 384.215 182.568C389.515 184.468 407.076 191.263 411.866 193.813C416.461 195.318 426.78 199.578 430.29 202.638C434.275 210.558 437.056 223.083 439.551 231.843C441.855 239.933 444.441 248.318 446.616 256.398L447.335 258.298L447.715 258.383C454.515 259.278 476.111 266.608 479.566 271.978C481.956 278.183 491.915 309.938 491.431 315.398C489.23 318.633 475.761 320.193 471.626 320.333C463.381 320.313 456.25 318.433 447.975 318.498C446.815 317.243 443.79 309.243 441.676 307.528C438.486 301.548 433.4 291.703 429.695 286.408C424.765 281.803 395.26 277.048 387.77 277.003C374.025 278.268 366.13 280.568 353.21 284.928C347.91 287.368 329.776 292.473 327.611 296.078C324.331 300.963 322.565 304.868 319.82 309.963C310.215 313.183 300.616 316.258 290.926 319.213C287.966 320.118 285.4 320.823 283.76 323.603C283.07 325.688 280.415 334.308 279.551 335.588C276.621 334.423 268.5 335.458 265.035 335.253C252.775 334.538 210.509 336.963 203.359 325.938L202.13 324.813C201.535 325.613 201.166 326.173 200.639 327.018C198.443 329.193 196.768 330.488 194.075 332.018C185.528 336.353 179.884 336.548 170.261 336.528C164.972 336.433 159.684 336.273 154.399 336.053C152.125 335.698 150.605 335.778 148.344 335.808C137.744 335.798 126.953 336.473 116.92 332.913C113.06 331.693 106.536 330.083 103.625 327.298C102.376 326.098 102.814 324.508 102.865 322.663L101.737 321.978C96.417 322.828 91.3815 322.603 86.0585 323.223C79.823 323.923 73.8925 322.528 67.2205 323.413C60.269 324.333 43.013 330.848 36.8835 329.898C31.2215 329.228 5.09 321.918 0 319.608C2.6175 311.223 8.23398 299.328 12.122 291.308C16.601 287.913 25.5465 284.438 31.402 284.848L32.654 284.518C33.7205 282.033 34.4565 273.548 35.0915 270.183C36.842 260.898 38.056 249.088 40.5325 240.118C40.9905 237.623 41.7925 234.678 42.4075 232.168L43.848 233.603L44.422 231.613C47.369 228.633 59.9855 230.388 65.4525 230.083L66.1785 230.043L69.922 228.768C77.701 225.318 88.674 220.323 96.136 216.333L96.8705 215.988C100.631 214.193 104.015 212.543 107.671 210.553C105.333 206.338 102.219 203.163 99.8855 198.503L98.831 196.758L99.752 195.358L98.4285 193.398C97.87 190.458 98.678 153.858 99.223 149.566C99.1385 145.474 98.8615 134.602 103.326 132.591C117.417 126.241 131.789 120.273 145.984 114.05L154.877 109.153L156.447 108.203C148.763 105.616 145.335 102.334 140.938 95.7857C138.328 93.3077 135.342 89.4927 135.357 85.7187Z" fill="#373737"/>
<path d="M135.356 85.7187C134.114 79.9197 137.011 68.5862 137.769 62.1527C138.804 53.3497 140.275 44.3297 141.414 35.5072C141.957 31.3052 143.4 29.0812 147.389 27.3122C162.407 20.8592 176.542 14.4182 191.424 7.49472C221.033 -6.27978 256.905 2.33624 287.895 6.60074C298.86 8.10974 330.05 13.5837 336.885 20.8487C340.985 27.5622 344.89 34.3912 348.595 41.3282C355.11 53.2822 361.65 63.0377 358.73 77.5812C358.155 80.4377 357.16 82.5862 354.825 84.4207C351.655 87.3957 349.025 89.1162 345.345 91.4537L342.83 98.2362L345.035 98.9787C347.885 99.1672 349.3 99.3167 352.17 99.8582C361.945 100.653 371.685 101.795 381.38 103.283C383.545 104.008 384.395 104.154 386.205 105.463C391.415 116.123 398.29 131.129 401.95 142.598C402.97 145.802 398.475 155.598 396.835 159.253C390.045 159.458 389.38 165.618 385.13 167.643C380.745 167.888 373.995 156.738 371.645 153.082C372.655 158.613 375.24 168.993 372.06 173.803C366.835 177.368 336.995 188.668 330.38 189.513C325.11 190.183 308.925 188.743 302.32 189.993C292.085 191.928 281.74 195.343 271.785 198.313C263.575 200.463 246.23 206.243 238.873 206.718C237.17 205.833 227.412 207.568 224.786 207.563C205.574 207.533 190.992 205.798 172.038 210.428C157.52 213.978 134.305 210.083 120.006 206.733C115.975 205.788 102.239 198.338 99.8848 198.503L98.8303 196.758L99.7513 195.358L98.4278 193.398C97.8693 190.458 98.6773 153.858 99.2223 149.566C99.1378 145.474 98.8608 134.602 103.325 132.591C117.416 126.241 131.789 120.273 145.983 114.05L154.876 109.153L156.446 108.203C148.762 105.616 145.334 102.334 140.937 95.7857C138.327 93.3077 135.341 89.4927 135.356 85.7187Z" fill="#6C6C6C"/>
<path d="M135.356 85.7187C134.115 79.9197 137.012 68.5862 137.769 62.1527C138.805 53.3497 140.275 44.3297 141.415 35.5072C141.957 31.3052 143.4 29.0812 147.39 27.3122C162.407 20.8592 176.542 14.4182 191.425 7.49472C221.033 -6.27978 256.905 2.33624 287.895 6.60074C298.86 8.10974 330.05 13.5837 336.885 20.8487C340.985 27.5622 344.89 34.3912 348.595 41.3282C355.11 53.2822 361.65 63.0377 358.73 77.5812C358.155 80.4377 357.16 82.5862 354.825 84.4207C352.065 85.0717 349.08 85.7842 346.535 87.1072C343.955 88.1967 339.38 90.2777 336.86 90.9352C333.49 92.1272 323.005 95.2972 320.365 96.8367C316.56 97.7067 308.54 99.6292 304.97 99.7727C302.885 99.0177 277.71 99.1177 273.79 99.0692C265.58 99.1262 254.655 100.653 246.075 101.155C240.506 101.482 225.651 100.928 221.401 101.579C208.892 101.107 195.937 101.532 183.419 100.88C177.719 100.27 171.838 100.176 166.098 99.5997C157.615 98.7492 149.305 97.3762 140.937 95.7857C138.328 93.3077 135.342 89.4927 135.356 85.7187Z" fill="#8B8B8A"/>
<path d="M336.885 20.8486C340.985 27.5621 344.89 34.3911 348.595 41.3281C355.11 53.2821 361.65 63.0376 358.73 77.5811C358.155 80.4376 357.16 82.5862 354.825 84.4207C352.065 85.0717 349.08 85.7841 346.535 87.1071C343.955 88.1966 339.38 90.2776 336.86 90.9352C333.49 92.1272 323.005 95.2971 320.365 96.8366C316.56 97.7066 308.54 99.6291 304.97 99.7726C302.885 99.0176 277.71 99.1177 273.79 99.0692L274.515 98.5526C275.39 96.5516 275.185 89.0056 274.995 86.5721C274.3 77.5886 275.45 71.6791 268.615 65.2651C260.81 68.4731 252.425 67.4251 244.425 65.7091C259.85 64.1601 261.09 64.7486 273.36 56.0786C274.26 50.8171 273.2 43.7237 273.985 38.0302C275.62 37.4927 276.795 37.3911 278.48 37.1596C292.07 36.8741 304.04 32.7611 316.57 28.2446C323.77 25.6491 329.815 24.6551 336.885 20.8486Z" fill="#6C6C6C"/>
<path d="M273.36 56.0789C285.08 56.2614 285.875 60.7228 300.455 58.5648C298.88 59.1988 295.205 60.6989 293.7 60.8784C284.105 62.0254 277.645 59.7064 268.615 65.2654C260.81 68.4734 252.425 67.4254 244.425 65.7094C259.85 64.1604 261.09 64.7489 273.36 56.0789Z" fill="#484848"/>
<path d="M336.86 90.9353C336.48 78.7998 335.325 73.8283 330.93 62.9143C338.19 72.2583 337.04 77.2943 346.535 87.1073C343.955 88.1968 339.38 90.2778 336.86 90.9353Z" fill="#484848"/>
<path d="M135.356 85.7187C134.115 79.9197 137.012 68.5862 137.769 62.1527C138.805 53.3497 140.275 44.3297 141.415 35.5072C141.957 31.3052 143.4 29.0812 147.39 27.3122C162.407 20.8592 176.542 14.4182 191.425 7.49472C221.033 -6.27978 256.905 2.33624 287.895 6.60074C298.86 8.10974 330.05 13.5837 336.885 20.8487C329.815 24.6552 323.77 25.6492 316.57 28.2447C304.04 32.7612 292.07 36.8742 278.48 37.1597C259.395 37.4117 241.554 35.7277 222.623 34.8422C203.479 33.9177 184.302 33.8542 165.152 34.6527C161.949 34.7887 149.516 35.0527 147.797 37.0452C143.395 42.1482 138.663 83.3292 135.356 85.7187Z" fill="#BAB9B9"/>
<path d="M293.475 18.0069C295.145 17.4259 307.95 15.6339 310.45 15.4544C311.685 15.3659 315.87 16.6344 317.355 17.1194L320.975 19.9468C316.72 22.8263 312.19 24.0758 307.61 26.1409C296.34 31.2208 284.195 31.5954 271.865 31.6004C271.59 29.0389 270.565 22.2859 271.03 20.2064C273.96 17.8974 289.115 18.1234 293.475 18.0069Z" fill="#8B8B8A"/>
<path d="M293.476 18.0069C295.146 17.4259 307.951 15.6339 310.451 15.4544C311.686 15.3659 315.871 16.6344 317.356 17.1194C309.366 17.1229 301.166 18.1474 293.476 18.0069Z" fill="#A6A5A5"/>
<path d="M222.158 2.34333C227.181 2.20983 235.474 2.42433 240.829 2.40583C238.811 2.69183 235.378 2.56583 233.233 2.55433C235.704 3.62683 238.154 4.74683 240.582 5.91383C242.76 5.19833 243.5 4.75783 245.315 5.62583L245.645 6.80284C243.715 12.0003 234.81 12.8718 229.919 13.9318C229.396 13.8468 221.002 16.6563 220.077 16.9918C216.29 18.3668 214.933 18.1258 211.016 17.7763C193.583 6.48985 212.81 3.76083 222.158 2.34333Z" fill="#A6A5A5"/>
<path d="M210.051 43.1288C213.646 42.9673 236.7 44.4544 239.592 45.2974C237.415 45.9869 231.524 45.3318 229.055 45.4468C227.408 45.5233 225.277 46.0169 223.644 46.3629C214.109 46.5724 209.316 49.6404 203.281 56.6249L202.719 56.6549C203.003 54.3874 208.313 44.7973 210.051 43.1288Z" fill="#6C6C6C"/>
<path d="M346.536 87.1074C349.081 85.7844 352.066 85.0719 354.826 84.4209C351.656 87.3959 349.026 89.1164 345.346 91.4539L342.831 98.2364L345.036 98.9789C347.886 99.1674 349.301 99.3169 352.171 99.8584C361.946 100.653 371.686 101.795 381.381 103.283C381.256 107.601 381.306 109.202 377.871 112.125C375.306 113.635 360.896 120.143 360.276 121.023L360.736 121.516L355.946 123.376C347.271 125.245 336.766 127.42 328.286 129.8C324.941 130.74 316.881 135.356 312.856 136.972C284.941 138.942 256.596 137.387 228.622 137.41C222.116 137.416 216.376 141.492 209.856 141.226C191.817 138.89 175.95 136.993 157.817 140.729C154.75 141.361 146.468 142.697 143.315 142.529C139.066 141.545 130.427 141.705 125.764 141.65C123.476 142.808 123.108 142.59 120.486 142.706L119.471 142.759L118.862 142.783L118.424 143.196C111.455 143.24 107.649 142.493 100.742 141.129C100.974 145.377 101.353 148.022 102.056 152.242L101.499 153.127C100.879 150.401 100.225 147.994 100.151 145.183C99.7066 146.877 99.7351 152.22 99.6971 154.287C99.4326 152.787 99.3466 151.097 99.2231 149.566C99.1386 145.474 98.8616 134.602 103.326 132.591C117.417 126.241 131.79 120.273 145.984 114.05L154.877 109.153L156.447 108.203C148.763 105.616 145.335 102.334 140.938 95.7859C149.306 97.3764 157.615 98.7494 166.098 99.5999C171.838 100.176 177.719 100.27 183.42 100.88C195.938 101.532 208.892 101.107 221.401 101.579C225.651 100.928 240.506 101.482 246.076 101.155C254.656 100.653 265.581 99.1264 273.791 99.0694C277.711 99.1179 302.886 99.0179 304.971 99.7729C308.541 99.6294 316.561 97.7069 320.366 96.8369C323.006 95.2974 333.491 92.1274 336.861 90.9354C339.381 90.2779 343.956 88.1969 346.536 87.1074Z" fill="#A6A5A5"/>
<path d="M346.535 87.1074C349.08 85.7844 352.065 85.0719 354.825 84.4209C351.655 87.3959 349.025 89.1164 345.345 91.4539L342.83 98.2364C333.58 101.441 319.425 106.841 310.22 108.712C301.69 110.446 285.686 110.687 276.665 110.987C249.37 112.014 222.039 111.942 194.745 110.77C188.343 110.504 181.948 110.076 175.568 109.488C170.477 109 161.112 107.45 156.447 108.203C148.763 105.616 145.335 102.334 140.938 95.7859C149.306 97.3764 157.615 98.7494 166.098 99.5999C171.838 100.176 177.719 100.27 183.419 100.88C195.937 101.532 208.892 101.107 221.401 101.579C225.651 100.928 240.506 101.482 246.076 101.155C254.656 100.653 265.58 99.1264 273.79 99.0694C277.71 99.1179 302.885 99.0179 304.97 99.7729C308.54 99.6294 316.561 97.7069 320.366 96.8369C323.006 95.2974 333.491 92.1274 336.861 90.9354C339.381 90.2779 343.955 88.1969 346.535 87.1074Z" fill="#373737"/>
<path d="M183.419 100.88C195.937 101.532 208.891 101.107 221.4 101.579C216.761 102.878 185.272 103.074 180.136 101.821L180.436 101.388L183.419 100.88Z" fill="#1D1D1D"/>
<path d="M320.365 96.8367C319.045 100.275 308.39 100.717 304.97 99.7727C308.54 99.6292 316.56 97.7067 320.365 96.8367Z" fill="#1D1D1D"/>
<path d="M156.446 108.203C161.112 107.45 170.476 109 175.567 109.488C181.947 110.076 188.342 110.504 194.744 110.77C222.038 111.942 249.37 112.014 276.665 110.987C285.685 110.687 301.69 110.446 310.22 108.712C319.425 106.841 333.58 101.441 342.83 98.2363L345.035 98.9788C347.885 99.1673 349.3 99.3168 352.17 99.8583C351.03 100.496 350.845 100.75 349.99 101.623C346.305 105.375 342.21 107.5 337.415 109.55C330.53 112.493 323.49 115.052 316.155 116.687C311.505 117.723 306.5 118.05 301.865 118.994C294.76 119.999 277.875 120.19 270.035 120.423C240.02 121.439 209.971 120.917 180.008 118.859C169.956 118.144 159.879 116.212 150.549 115.568L150.075 115.538L145.983 114.05L154.876 109.153L156.446 108.203Z" fill="#373737"/>
<path d="M156.447 108.203C161.112 107.45 170.476 109 175.567 109.488C181.948 110.076 188.342 110.504 194.744 110.77C222.038 111.942 249.37 112.014 276.665 110.987C285.685 110.687 301.69 110.446 310.22 108.712C319.425 106.841 333.58 101.441 342.83 98.2363L345.035 98.9788C327.76 114.022 292.975 114.184 271.01 114.802C242.335 115.798 213.632 115.386 184.998 113.569C177.044 113.018 161.987 111.843 154.877 109.153L156.447 108.203Z" fill="#1D1D1D"/>
<path d="M352.17 99.8584C361.945 100.653 371.685 101.795 381.38 103.283C381.255 107.601 381.305 109.202 377.87 112.125C375.305 113.635 360.895 120.143 360.275 121.023L360.735 121.516L355.945 123.376C350.7 120.179 321.095 130.334 314.43 133.047C310.335 128.582 306.06 123.068 301.865 118.994C306.5 118.05 311.505 117.723 316.155 116.687C323.49 115.052 330.53 112.493 337.415 109.55C342.21 107.5 346.305 105.375 349.99 101.623C350.845 100.75 351.03 100.496 352.17 99.8584Z" fill="#8B8B8A"/>
<path d="M145.984 114.05L150.076 115.538C148.18 117.396 144.112 118.517 141.668 119.784C133.622 123.956 113.902 131.505 107.768 137.209C114.096 141.041 118.334 141.605 125.764 141.65C123.476 142.808 123.108 142.59 120.486 142.706L119.471 142.759L118.862 142.783L118.424 143.196C111.455 143.24 107.649 142.493 100.742 141.129C100.974 145.377 101.353 148.022 102.056 152.242L101.499 153.127C100.879 150.401 100.225 147.994 100.151 145.183C99.7066 146.877 99.7351 152.22 99.6971 154.287C99.4326 152.787 99.3466 151.097 99.2231 149.566C99.1386 145.474 98.8616 134.602 103.326 132.591C117.417 126.241 131.79 120.273 145.984 114.05Z" fill="#CDCCCD"/>
<path d="M209.568 135.805C211.087 135.461 216.342 135.284 217.82 136.092C216.305 136.945 214.675 136.877 212.898 137.02C209.934 137.028 207.335 137.15 204.405 136.654C205.817 135.976 207.932 135.946 209.568 135.805Z" fill="#6C6C6C"/>
<path d="M217.406 131.186C219.726 131.09 222.12 131.124 224.34 131.797L223.81 132.165C221.684 132.201 218.079 132.449 216.183 131.872L217.406 131.186Z" fill="#6C6C6C"/>
<path d="M381.381 103.283C383.546 104.008 384.396 104.154 386.206 105.463C391.416 116.123 398.291 131.129 401.951 142.598C402.971 145.802 398.476 155.598 396.836 159.253C390.046 159.458 389.381 165.618 385.131 167.643C380.746 167.888 373.996 156.738 371.646 153.082C372.656 158.613 375.241 168.993 372.061 173.803C366.836 177.368 336.996 188.668 330.381 189.513C325.111 190.183 308.926 188.743 302.321 189.993C292.086 191.928 281.741 195.343 271.786 198.313C263.576 200.463 246.231 206.243 238.874 206.718C237.171 205.833 227.413 207.568 224.787 207.563C205.575 207.533 190.993 205.798 172.039 210.428C157.521 213.978 134.306 210.083 120.007 206.733C115.976 205.788 102.24 198.338 99.8856 198.503L98.8311 196.758L99.752 195.358C99.673 195.378 123.861 201.873 128.031 202.243C144.364 203.683 165.851 205.383 181.651 201.208C182.567 196.983 184.366 184.663 188.538 183.398C188.05 186.498 188.636 187.973 189.424 191.028C189.705 192.678 190.882 196.933 192.126 197.688C196.755 200.503 212.342 200.458 217.857 200.558C227.477 200.733 242.356 200.488 250.831 197.013C254.391 194.978 257.701 190.808 261.896 190.148C274.761 188.138 294.991 189.398 304.991 179.658C308.341 169.743 307.946 145.123 312.856 136.972C316.881 135.356 324.941 130.74 328.286 129.8C336.766 127.42 347.271 125.245 355.946 123.376L360.736 121.516L360.276 121.023C360.896 120.143 375.306 113.635 377.871 112.125C381.306 109.202 381.256 107.601 381.381 103.283Z" fill="#484848"/>
<path d="M377.87 112.125L379.71 112.866C374.005 116.265 367.205 119.863 360.735 121.516L360.275 121.023C360.895 120.143 375.305 113.635 377.87 112.125Z" fill="#BCBBBB"/>
<path d="M381.38 103.283C383.545 104.008 384.395 104.154 386.205 105.463C384.26 109.382 383.325 110.386 379.71 112.866L377.87 112.125C381.305 109.202 381.255 107.601 381.38 103.283Z" fill="#A6A5A5"/>
<path d="M360.476 123.818C368.341 128.542 368.556 136.028 368.676 144.608L367.906 144.797C366.816 143.542 359.296 125.795 359.266 124.929L360.476 123.818Z" fill="#373737"/>
<path d="M99.2223 149.566C99.3458 151.097 99.4318 152.787 99.6963 154.287C99.7343 152.22 99.7058 146.877 100.15 145.183C100.224 147.994 100.878 150.401 101.498 153.127L102.055 152.242C103.608 158.563 103.855 165.828 104.142 172.338C104.481 180.058 104.812 188.013 98.4278 193.398C97.8693 190.458 98.6773 153.858 99.2223 149.566Z" fill="#BCBBBB"/>
<path d="M209.466 166.888C206.849 169.293 203.126 172.448 200.959 176.003C198.513 180.013 197.011 188.913 194.866 193.348C194.46 193.458 194.053 193.568 193.646 193.678C191.679 193.263 191.011 192.398 189.424 191.028C188.635 187.973 188.05 186.498 188.537 183.398C194.392 180.763 197.931 171.863 209.466 166.888Z" fill="#BCBBBB"/>
<path d="M125.763 141.65C130.426 141.705 139.065 141.545 143.314 142.529C138.784 142.882 122.008 144.215 118.423 143.196L118.861 142.783L119.47 142.759L120.485 142.706C123.107 142.59 123.475 142.808 125.763 141.65Z" fill="#BCBBBB"/>
<path d="M130.518 162.143C139.379 162.003 141.42 165.618 150.038 166.968C154.666 167.698 161.234 165.723 163.958 166.218C160.493 167.628 153.938 169.063 150.108 170.018C141.771 170.478 140.196 166.828 132.938 166.018C130.405 165.738 122.259 169.268 118.399 168.938L118.679 168.273C122.65 165.723 126.071 163.713 130.518 162.143Z" fill="#484848"/>
<path d="M203.359 325.938C203.604 313.613 204.46 300.618 203.824 286.668C202.931 267.053 196.181 240.473 198.991 220.238C199.23 218.513 203.285 215.338 205.053 215.018C216.516 212.963 229.732 212.408 241.406 210.943C249.26 210.018 257.085 208.903 264.885 207.603C281.025 204.793 317.575 196.523 332.695 203.853C342.36 216.483 345.46 241.818 349.345 257.393C350.385 261.568 351.94 283.208 353.21 284.928C347.91 287.368 329.775 292.473 327.61 296.078C324.33 300.963 322.565 304.868 319.82 309.963C310.215 313.183 300.615 316.258 290.925 319.213C287.965 320.118 285.4 320.823 283.76 323.603C283.07 325.688 280.415 334.308 279.55 335.588C276.62 334.423 268.5 335.458 265.035 335.253C252.775 334.538 210.509 336.963 203.359 325.938Z" fill="#484848"/>
<path d="M212.003 218.373C229.311 216.588 246.58 214.443 263.8 211.938C272.965 210.588 317.07 201.468 321.81 207.483C323.115 211.988 316.42 220.578 312.89 222.978L312.21 223.643C312.515 229.348 315.305 237.408 316.365 243.258C318.9 257.298 312.66 269.318 309.445 282.568C292.72 290.873 268.73 304.413 251.825 312.098C247.63 314.008 215.802 310.898 209.753 308.953C208.799 312.273 207.848 315.783 206.773 319.053C207.335 313.398 207.752 308.823 207.887 303.113C207.804 299.163 207.737 295.488 207.858 291.538C207.15 273.823 206.323 255.903 204.791 238.253C204.03 229.488 204.608 224.468 212.003 218.373Z" fill="#6C6C6C"/>
<path d="M212.003 218.373C229.311 216.588 246.58 214.443 263.8 211.938C272.965 210.588 317.07 201.468 321.81 207.483C323.115 211.988 316.42 220.578 312.89 222.978L312.21 223.643C308.845 224.538 307.08 224.878 303.63 225.348C303.405 225.403 303.175 225.463 302.95 225.513C297.205 226.813 290.515 226.728 284.62 227.103C269.425 228.063 254.235 228.768 239.051 229.943C231.506 230.528 222.989 230.693 215.704 232.768C212.888 233.568 209.737 234.903 208.079 237.458C205.989 240.673 208.686 271.603 208.846 277.353C208.777 280.333 209.044 289.408 207.858 291.538C207.15 273.823 206.323 255.903 204.791 238.253C204.03 229.488 204.608 224.468 212.003 218.373Z" fill="#A4A4A3"/>
<path d="M303.63 225.348L302.855 224.933L303.26 224.198C305.565 223.473 310.4 223.063 312.89 222.978L312.21 223.643C308.845 224.538 307.08 224.878 303.63 225.348Z" fill="#CDCCCD"/>
<path d="M208.846 277.353C209.568 281.218 210.138 300.298 207.887 303.113C207.804 299.163 207.737 295.488 207.858 291.538C209.044 289.408 208.777 280.333 208.846 277.353Z" fill="#8B8B8A"/>
<path d="M247.13 270.213C246.535 267.548 246.815 265.638 247.225 263.078C250.335 243.728 249.935 239.913 270.72 236.858C281.065 235.338 286.135 235.323 296.79 236.613C291.52 237.833 283.095 238.348 277.355 238.908L280.605 239.433L280.54 239.913C271.335 244.323 268.945 247.253 261.305 253.538C260.04 254.578 256.5 256.058 254.82 257.148L254.55 257.663C252.88 260.938 249.67 270.568 247.49 271.973C247.135 270.938 247.155 271.273 247.13 270.213Z" fill="#484848"/>
<path d="M253.13 253.358C261.24 249.093 267.61 240.473 277.355 238.908L280.605 239.433L280.54 239.913C271.335 244.323 268.945 247.253 261.305 253.538C260.04 254.578 256.5 256.058 254.82 257.148L254.55 257.663C252.88 260.938 249.67 270.568 247.49 271.973C247.135 270.938 247.155 271.273 247.13 270.213C248.69 265.423 250.94 257.548 253.13 253.358Z" fill="#8B8B8A"/>
<path d="M326.11 213.468C332.285 215.278 337.08 228.403 337.635 234.373C336.32 233.138 336.355 232.308 335.715 230.643C333.365 224.498 330.005 218.743 326.11 213.468Z" fill="#1D1D1D"/>
<path d="M371.645 153.082C373.995 156.738 380.745 167.888 385.13 167.643C389.38 165.618 390.045 159.458 396.835 159.253C390.415 171.263 389.4 171.938 378.245 180.043C380 180.813 382.465 181.988 384.215 182.568C389.515 184.468 407.075 191.263 411.865 193.813C416.46 195.318 426.78 199.578 430.29 202.638C434.275 210.558 437.055 223.083 439.55 231.843C441.855 239.933 444.44 248.318 446.615 256.398L447.335 258.298L447.715 258.383C454.515 259.278 476.11 266.608 479.565 271.978C481.955 278.183 491.915 309.938 491.43 315.398C489.23 318.633 475.76 320.193 471.625 320.333C463.38 320.313 456.25 318.433 447.975 318.498C446.815 317.243 443.79 309.243 441.675 307.528C438.485 301.548 433.4 291.703 429.695 286.408C424.765 281.803 395.26 277.048 387.77 277.003L388.695 276.348L388.79 275.238C385.955 272.563 366.445 275.288 360.54 275.038C356.805 267.388 355.755 260.348 353.71 252.128C352.93 248.033 349.915 241.873 349.6 237.983C348.5 224.398 341.65 214.108 341.9 200.448C347.685 193.533 356.275 193.258 364.4 189.088C369.76 186.338 370.53 185.683 375.43 181.723C364.125 184.173 345.94 192.973 334.515 195.903C329.87 197.093 310.385 196.288 304.04 196.378C294.475 196.508 279.775 199.898 271.785 198.313C281.74 195.343 292.085 191.928 302.32 189.993C308.925 188.743 325.11 190.183 330.38 189.513C336.995 188.668 366.835 177.368 372.06 173.803C375.24 168.993 372.655 158.613 371.645 153.082Z" fill="#373737"/>
<path d="M430.29 202.638C434.275 210.558 437.055 223.083 439.55 231.843C441.855 239.933 444.44 248.318 446.615 256.398L447.335 258.298L446.95 258.428C442.7 258.263 430.255 270.413 425.03 273.583C421.915 273.648 418.8 273.513 415.705 273.168C413.09 272.873 403.385 271.463 401.78 269.828C397.525 265.498 398.835 252.048 395.79 245.898C392.905 240.068 389.38 236.208 385.615 231.518C387.34 224.763 387.97 222.098 387.75 215.128C396.425 215.428 418.5 209.233 426.445 205.233C426.7 204.998 429.825 202.948 430.29 202.638Z" fill="#484848"/>
<path d="M430.29 202.638C434.275 210.558 437.055 223.083 439.55 231.843C441.855 239.933 444.44 248.318 446.615 256.398C445.105 256.433 444.7 256.758 443.4 257.438C440.975 255.488 432.8 213.013 426.445 205.233C426.7 204.998 429.825 202.948 430.29 202.638Z" fill="#8B8B8A"/>
<path d="M447.715 258.383C454.515 259.278 476.11 266.608 479.565 271.978C481.955 278.183 491.915 309.938 491.43 315.398C489.23 318.633 475.76 320.193 471.625 320.333C471.03 319.913 469.88 317.533 468.99 316.898C463.9 313.293 457.31 312.703 451.575 310.248C448.87 305.088 442.21 289.068 438.92 286.068C438.765 284.148 438.965 270.923 439.345 269.538C440.685 268.468 441.925 267.333 443.205 266.193C444.935 263.573 446.63 261.323 447.715 258.383Z" fill="#484848"/>
<path d="M447.715 258.383C454.515 259.278 476.11 266.608 479.565 271.978C477.14 273.823 468.385 276.843 465.15 278.043C455.715 275.798 448.895 275.423 439.735 273.828C441.16 271.048 442.04 269.093 443.205 266.193C444.935 263.573 446.63 261.323 447.715 258.383Z" fill="#6C6C6C"/>
<path d="M463.605 287.818C467.035 290.503 468.115 298.683 468.665 302.873L467.785 302.643C465.17 298.428 463.7 292.783 463.605 287.818Z" fill="#373737"/>
<path d="M384.215 182.568C389.515 184.468 407.075 191.263 411.865 193.813C416.46 195.318 426.78 199.578 430.29 202.638C429.825 202.948 426.7 204.998 426.445 205.233C418.5 209.233 396.425 215.428 387.75 215.128L386.71 214.683L378.975 211.388L378.16 210.793L367.82 206.308C364.905 205.638 353.4 200.758 351.63 198.168C353.02 196.158 378.76 186.573 384.215 182.568Z" fill="#807F80"/>
<path d="M411.865 193.813C416.46 195.318 426.78 199.578 430.29 202.638C429.825 202.948 426.7 204.998 426.445 205.233C418.5 209.233 396.425 215.428 387.75 215.128L386.71 214.683L386.695 213.503C393.28 214.168 418.235 208.193 421.465 202.423C421.09 198.713 413.15 197.843 411.865 193.813Z" fill="#C1C0C1"/>
<path d="M367.82 206.308C370.875 205.308 376.11 207.903 378.09 210.248L378.16 210.793L367.82 206.308Z" fill="#A6A5A5"/>
<path d="M378.976 211.388C382.096 209.873 383.826 211.543 386.696 213.503L386.711 214.683L378.976 211.388Z" fill="#A6A5A5"/>
<path d="M447.336 258.298L447.716 258.383C446.631 261.323 444.936 263.573 443.206 266.193C441.926 267.333 440.686 268.468 439.346 269.538C437.796 271.008 436.551 272.163 435.226 273.868C433.051 276.668 431.616 283.033 428.476 284.173L428.101 283.448C429.586 275.183 441.346 264.203 446.951 258.428L447.336 258.298Z" fill="#1D1D1D"/>
<path d="M350.565 210.228L351.54 211.013C352.425 215.978 356.095 227.253 355.6 231.083C353.77 227.733 350.025 214.023 350.565 210.228Z" fill="#1D1D1D"/>
<path d="M69.922 228.768C77.701 225.318 88.674 220.323 96.136 216.333C98.6205 220.573 101.952 220.673 101.711 226.488C99.451 239.348 99.648 254.473 97.324 266.998C96.3805 272.078 88.0235 283.638 86.0825 289.993C82.337 296.373 85.4015 300.838 85.301 308.303C85.389 312.873 85.507 316.188 86.0075 320.708L86.0585 323.223C79.823 323.923 73.8925 322.528 67.2205 323.413C60.269 324.333 43.013 330.848 36.8835 329.898C31.2215 329.228 5.09 321.918 0 319.608C2.6175 311.223 8.23398 299.328 12.122 291.308C16.601 287.913 25.5465 284.438 31.402 284.848L32.654 284.518C33.7205 282.033 34.4565 273.548 35.0915 270.183C36.842 260.898 38.056 249.088 40.5325 240.118C40.9905 237.623 41.7925 234.678 42.4075 232.168L43.848 233.603L44.422 231.613C47.369 228.633 59.9855 230.388 65.4525 230.083L66.1785 230.043L69.922 228.768Z" fill="#6C6C6C"/>
<path d="M12.122 291.308C16.601 287.913 25.5465 284.438 31.402 284.848C35.546 286.288 47.238 289.228 51.288 289.933C54.7365 290.928 58.479 292.083 61.941 292.893C71.254 294.373 70.3925 317.613 78.984 320.613C79.9625 320.958 84.6255 320.753 86.0075 320.708L86.0585 323.223C79.823 323.923 73.8925 322.528 67.2205 323.413C60.269 324.333 43.013 330.848 36.8835 329.898C31.2215 329.228 5.09 321.918 0 319.608C2.6175 311.223 8.23398 299.328 12.122 291.308Z" fill="#8B8B8A"/>
<path d="M61.9403 292.893C71.2533 294.373 70.3918 317.613 78.9833 320.613C79.9618 320.958 84.6248 320.753 86.0068 320.708L86.0578 323.223C79.8223 323.923 73.8918 322.528 67.2198 323.413C60.2683 324.333 43.0123 330.848 36.8828 329.898C39.3503 328.048 45.2313 303.528 46.7208 299.343C51.7923 297.693 57.1928 295.313 61.9403 292.893Z" fill="#484848"/>
<path d="M12.1221 291.308C16.6011 287.913 25.5466 284.438 31.4021 284.848C35.5461 286.288 47.2381 289.228 51.2881 289.933C54.7366 290.928 58.4791 292.083 61.9411 292.893C57.1936 295.313 51.7931 297.693 46.7216 299.343C41.5131 298.743 16.2811 293.158 12.1221 291.308Z" fill="#A6A5A5"/>
<path d="M43.8474 233.603L44.4214 231.613C47.3684 228.633 59.9849 230.388 65.4519 230.083L66.1779 230.043C65.4834 234.998 60.8894 241.368 59.1684 246.138C58.1189 249.048 57.8984 252.663 57.0549 255.683C54.8649 266.733 53.9619 279.703 51.2874 289.933C47.2374 289.228 35.5454 286.288 31.4014 284.848L32.6534 284.518C33.7199 282.033 34.4559 273.548 35.0909 270.183C36.8414 260.898 38.0554 249.088 40.5319 240.118C40.9899 237.623 41.7919 234.678 42.4069 232.168L43.8474 233.603Z" fill="#8B8B8A"/>
<path d="M42.4072 232.168L43.8477 233.603C43.2707 236.338 43.0857 237.628 41.8527 240.203C41.2637 240.208 41.0682 240.278 40.5322 240.118C40.9902 237.623 41.7922 234.678 42.4072 232.168Z" fill="#A6A5A5"/>
<path d="M69.9212 228.768C70.8092 231.953 65.9687 243.228 63.6817 246.368C57.8247 254.398 59.6627 263.123 58.3722 272.878C57.2572 266.888 58.2542 261.298 57.0547 255.683C57.8982 252.663 58.1187 249.048 59.1682 246.138C60.8892 241.368 65.4832 234.998 66.1777 230.043L69.9212 228.768Z" fill="#484848"/>
<path d="M271.785 198.313C279.775 199.898 294.475 196.508 304.04 196.378C310.385 196.288 329.87 197.093 334.515 195.903C345.94 192.973 364.125 184.173 375.43 181.723C370.53 185.683 369.76 186.338 364.4 189.088C356.275 193.258 347.685 193.533 341.9 200.448C341.65 214.108 348.5 224.398 349.6 237.983C349.915 241.873 352.93 248.033 353.71 252.128C355.755 260.348 356.805 267.388 360.54 275.038C366.445 275.288 385.955 272.563 388.79 275.238L388.695 276.348L387.77 277.003C374.025 278.268 366.13 280.568 353.21 284.928C351.94 283.208 350.385 261.568 349.345 257.393C345.46 241.818 342.36 216.483 332.695 203.853C317.575 196.523 281.025 204.793 264.885 207.603C257.085 208.903 249.26 210.018 241.406 210.943C229.732 212.408 216.515 212.963 205.052 215.018C203.285 215.338 199.229 218.513 198.991 220.238C196.181 240.473 202.93 267.053 203.824 286.668C204.46 300.618 203.603 313.613 203.358 325.938L202.13 324.813C201.534 325.613 201.166 326.173 200.639 327.018C200.678 306.528 201.922 285.548 199.156 265.183C198.732 262.063 195.318 252.388 194.257 247.008C194.357 237.813 194.383 226.343 190.048 218.408C187.696 217.073 186.069 216.208 183.302 216.173C168.001 215.988 152.895 217.443 137.613 215.213C130.268 214.143 124.938 210.768 121.887 219.913C126.602 218.168 137.307 220.693 142.679 221.633C138.903 238.708 129.939 257.853 127.565 275.393L129.703 277.328C130.25 278.423 132.564 282.103 132.623 282.798C130.078 281.658 127.347 280.323 124.696 279.543C123.605 284.478 123.132 285.528 119.197 288.768C114.261 288.263 107.792 286.628 103.828 283.553C101.464 296.053 105.087 311.083 102.864 322.663L101.737 321.978C96.4165 322.828 91.381 322.603 86.058 323.223L86.007 320.708C85.5065 316.188 85.3885 312.873 85.3005 308.303C85.401 300.838 82.3365 296.373 86.082 289.993C88.023 283.638 96.38 272.078 97.3235 266.998C99.6475 254.473 99.4505 239.348 101.711 226.488C101.952 220.673 98.62 220.573 96.1355 216.333L96.87 215.988C100.631 214.193 104.015 212.543 107.67 210.553C105.333 206.338 102.219 203.163 99.885 198.503C102.239 198.338 115.975 205.788 120.006 206.733C134.305 210.083 157.52 213.978 172.038 210.428C190.992 205.798 205.574 207.533 224.786 207.563C227.413 207.568 237.171 205.833 238.874 206.718C246.23 206.243 263.575 200.463 271.785 198.313Z" fill="#1D1D1D"/>
<path d="M99.885 198.503C102.239 198.338 115.975 205.788 120.006 206.733C134.305 210.083 157.52 213.978 172.038 210.428C190.992 205.798 205.574 207.533 224.786 207.563C227.413 207.568 237.171 205.833 238.874 206.718C229.836 209.368 203.483 207.818 192.781 208.008C182.923 208.183 178.773 210.408 170.271 211.538C153.698 213.738 128.198 211.483 113.044 204.888C115.666 209.638 117.725 215.113 115.525 220.603C110.819 232.713 110.33 245.193 107.075 257.843C104.577 267.553 98.582 277.943 96.45 286.843C93.504 299.138 99.206 308.328 93.1835 321.503C94.676 321.963 98.5375 321.233 101.737 321.978C96.4165 322.828 91.381 322.603 86.058 323.223L86.007 320.708C85.5065 316.188 85.3885 312.873 85.3005 308.303C85.401 300.838 82.3365 296.373 86.082 289.993C88.023 283.638 96.38 272.078 97.3235 266.998C99.6475 254.473 99.4505 239.348 101.711 226.488C101.952 220.673 98.62 220.573 96.1355 216.333L96.87 215.988C100.631 214.193 104.015 212.543 107.67 210.553C105.333 206.338 102.219 203.163 99.885 198.503Z" fill="#373737"/>
<path d="M86.082 289.993L87.373 290.783C87.8135 294.203 88.326 308.433 86.4965 310.868C85.6275 309.733 85.706 309.703 85.3005 308.303C85.401 300.838 82.3365 296.373 86.082 289.993Z" fill="#484848"/>
<path d="M96.1357 216.333L96.8702 215.988C99.4312 216.768 102.905 217.453 104.02 220.118C105.111 222.723 105.366 227.418 103.858 229.878L103.14 229.838C102.744 228.853 102.211 227.368 101.711 226.488C101.952 220.673 98.6202 220.573 96.1357 216.333Z" fill="#484848"/>
<path d="M121.888 219.913C126.603 218.168 137.308 220.693 142.68 221.633C138.903 238.708 129.94 257.853 127.565 275.393L129.704 277.328C130.251 278.423 132.565 282.103 132.624 282.798C130.078 281.658 127.348 280.323 124.697 279.543C123.606 284.478 123.133 285.528 119.198 288.768C114.262 288.263 107.793 286.628 103.829 283.553L104.667 281.633C106.516 276.683 108.799 272.563 110.455 267.213C115.775 252.883 117.93 235.283 121.888 219.913Z" fill="#8B8B8A"/>
<path d="M113.05 265.693L113.673 265.398C116.396 267.193 125.956 274.803 127.565 275.393L129.704 277.328C130.251 278.423 132.565 282.103 132.624 282.798C130.078 281.658 127.348 280.323 124.697 279.543C123.606 284.478 123.133 285.528 119.198 288.768C114.262 288.263 107.793 286.628 103.829 283.553L104.667 281.633C106.516 276.683 108.799 272.563 110.455 267.213C111.305 266.888 112.253 266.203 113.05 265.693Z" fill="#BCBBBB"/>
<path d="M113.049 265.693C111.236 270.908 112.339 279.903 104.667 281.633C106.515 276.683 108.799 272.563 110.455 267.213C111.304 266.888 112.252 266.203 113.049 265.693Z" fill="#A6A5A5"/>
<path d="M124.696 279.543C127.347 280.323 130.077 281.658 132.623 282.798C145.413 291.928 164.064 283.393 176.232 286.878C175.441 287.808 174.471 288.583 174.418 289.598C174.127 295.193 174.184 300.648 173.867 306.288C173.404 314.543 170.238 328.968 170.26 336.528C164.971 336.433 159.684 336.273 154.398 336.053C152.125 335.698 150.605 335.778 148.343 335.808C137.743 335.798 126.953 336.473 116.919 332.913C113.06 331.693 106.536 330.083 103.625 327.298C102.375 326.098 102.814 324.508 102.864 322.663C105.087 311.083 101.464 296.053 103.828 283.553C107.792 286.628 114.261 288.263 119.197 288.768C123.132 285.528 123.605 284.478 124.696 279.543Z" fill="#6C6C6C"/>
<path d="M103.828 283.553C107.792 286.628 114.261 288.263 119.197 288.768C116.598 291.923 117.528 291.918 117.091 295.378C116.409 300.778 118.62 330.248 116.919 332.913C113.06 331.693 106.536 330.083 103.625 327.298C102.375 326.098 102.814 324.508 102.864 322.663C105.087 311.083 101.464 296.053 103.828 283.553Z" fill="#8B8B8A"/>
<path d="M152.471 327.778C153.451 330.573 153.858 333.158 154.398 336.053C152.125 335.698 150.605 335.778 148.343 335.808C149.631 332.888 151.056 330.573 152.471 327.778Z" fill="#484848"/>
<path d="M142.679 221.633C146.929 221.968 171.059 222.883 173.119 225.508C176.981 230.438 180.675 269.213 173.851 273.933C170.435 276.298 154.473 279.353 149.489 279.543C145.805 279.883 136.695 278.353 134.919 279.303C133.241 278.963 131.328 278.018 129.703 277.328L127.564 275.393C129.939 257.853 138.902 238.708 142.679 221.633Z" fill="#6C6C6C"/>
<path d="M194.257 247.008C195.318 252.388 198.732 262.063 199.156 265.183C201.922 285.548 200.678 306.528 200.639 327.018C198.443 329.193 196.768 330.488 194.074 332.018C193.628 326.148 194.545 321.188 195.092 315.213C195.987 305.448 196.472 293.223 195.485 283.463C195.28 281.438 192.318 274.718 191.379 272.648C189.911 271.508 189.821 271.508 187.98 270.988L187.525 270.868C188.463 268.968 191.414 267.453 192.138 265.983C194.909 260.353 192.631 253.013 194.257 247.008Z" fill="#484848"/>
<path d="M129.703 277.328C131.329 278.018 133.241 278.963 134.92 279.303C142.607 283.018 145.36 283.418 153.741 285.113C155.329 284.528 160.674 282.563 162.083 282.383C170.572 281.288 174.059 281.668 182.395 279.283C180.182 282.488 179.013 284.118 176.233 286.878C164.065 283.393 145.414 291.928 132.623 282.798C132.564 282.103 130.25 278.423 129.703 277.328Z" fill="#8B8B8A"/>
<path d="M387.771 277.003C395.261 277.048 424.766 281.803 429.696 286.408C433.401 291.703 438.486 301.548 441.676 307.528C443.791 309.243 446.816 317.243 447.976 318.498C448.861 320.163 452.396 326.303 451.676 327.648C446.776 336.813 426.541 340.793 417.506 342.828C402.016 346.313 388.536 347.348 373.016 348.883C368.456 349.313 363.261 352.543 358.021 351.883C347.696 352.283 337.061 350.958 327.101 351.263C319.116 351.508 311.971 353.518 302.986 353.248C300.776 351.918 296.216 350.708 293.456 349.688C292.031 348.373 291.661 348.338 289.786 347.598L289.216 347.378L289.966 346.573L289.931 346.948L289.801 346.433C286.531 344.808 279.591 342.003 278.351 339.103L279.551 335.588C280.416 334.308 283.071 325.688 283.761 323.603C285.401 320.823 287.966 320.118 290.926 319.213C300.616 316.258 310.216 313.183 319.821 309.963C322.566 304.868 324.331 300.963 327.611 296.078C329.776 292.473 347.911 287.368 353.211 284.928C366.131 280.568 374.026 278.268 387.771 277.003Z" fill="#484848"/>
<path d="M387.77 277.003C395.26 277.048 424.765 281.803 429.695 286.408C426.93 287.253 416.175 283.113 412.38 282.633C409.435 282.263 406.335 281.433 403.055 281.223C396.345 287.883 383.05 292.878 375.13 298.768C373.445 300.023 370.645 302.983 369.075 304.593C368.005 306.653 367.035 308.453 366.15 310.613L365.74 310.668C363.4 310.718 361.06 310.718 358.725 310.678C347.685 309.718 330.915 309.713 319.82 309.963C322.565 304.868 324.33 300.963 327.61 296.078C329.775 292.473 347.91 287.368 353.21 284.928C366.13 280.568 374.025 278.268 387.77 277.003Z" fill="#A6A5A5"/>
<path d="M327.61 296.078C328.59 298.528 327.55 300.278 329.03 302.188C335.015 305.208 354.86 304.658 362.105 304.678C363.69 304.683 368.06 304.203 369.075 304.593C368.005 306.653 367.035 308.453 366.15 310.613L365.74 310.668C363.4 310.718 361.06 310.718 358.725 310.678C347.685 309.718 330.915 309.713 319.82 309.963C322.565 304.868 324.33 300.963 327.61 296.078Z" fill="#BCBBBB"/>
<path d="M319.82 309.963C330.915 309.713 347.685 309.718 358.725 310.678C361.06 310.718 363.4 310.718 365.74 310.668L366.15 310.613C369.025 311.173 370.05 311.128 372.935 311.108C375.685 311.053 378.125 310.858 380.85 310.633C382.235 312.033 383.325 312.803 383.75 314.693L383.515 315.583C383.67 318.243 384.01 320.713 383.395 323.278L382.405 323.613C380.055 324.078 378.265 321.418 374.595 321.633C348.385 323.138 321.055 325.983 295.405 331.758C292.64 330.713 291.18 329.553 288.77 327.898C286.555 326.838 285.465 325.393 283.76 323.603C285.4 320.823 287.965 320.118 290.925 319.213C300.615 316.258 310.215 313.183 319.82 309.963Z" fill="#8B8B8A"/>
<path d="M319.82 309.963C330.915 309.713 347.685 309.718 358.725 310.678C344.785 315.453 332.7 317.853 318.36 320.898C311.48 322.363 294.095 327.968 288.77 327.898C286.555 326.838 285.465 325.393 283.76 323.603C285.4 320.823 287.965 320.118 290.925 319.213C300.615 316.258 310.215 313.183 319.82 309.963Z" fill="#A6A5A5"/>
<path d="M372.935 311.108C375.685 311.053 378.125 310.858 380.85 310.633C382.235 312.033 383.325 312.803 383.75 314.693L383.515 315.583C383.67 318.243 384.01 320.713 383.395 323.278L382.405 323.613C380.65 313.278 369.54 317.928 365.34 311.858L365.74 310.668L366.15 310.613C369.025 311.173 370.05 311.128 372.935 311.108Z" fill="#484848"/>
<path d="M372.936 311.108C375.686 311.053 378.126 310.858 380.851 310.633C382.236 312.033 383.326 312.803 383.751 314.693L383.516 315.583C381.001 313.388 376.846 313.073 372.936 311.108Z" fill="#6C6C6C"/>
<path d="M403.055 281.223C406.335 281.433 409.435 282.263 412.38 282.633C416.175 283.113 426.93 287.253 429.695 286.408C433.4 291.703 438.485 301.548 441.675 307.528C438.13 306.118 432.975 294.798 429.515 290.158C426.47 294.083 422.705 298.303 419.45 302.118C407.05 302.108 391.96 305.198 380.85 310.633C378.125 310.858 375.685 311.053 372.935 311.108C370.05 311.128 369.025 311.173 366.15 310.613C367.035 308.453 368.005 306.653 369.075 304.593C370.645 302.983 373.445 300.023 375.13 298.768C383.05 292.878 396.345 287.883 403.055 281.223Z" fill="#6C6C6C"/>
<path d="M283.761 323.603C285.466 325.393 286.556 326.838 288.771 327.898C291.181 329.553 292.641 330.713 295.406 331.758C292.786 336.543 291.286 344.053 289.801 346.433C286.531 344.808 279.591 342.003 278.351 339.103L279.551 335.588C280.416 334.308 283.071 325.688 283.761 323.603Z" fill="#6C6C6C"/>
<path d="M98.8307 196.758L99.8852 198.503C102.219 203.163 105.333 206.338 107.67 210.553C104.015 212.543 100.631 214.193 96.8702 215.988L96.1357 216.333C88.6737 220.323 77.7007 225.318 69.9217 228.768L66.1782 230.043L65.4522 230.083C59.9852 230.388 47.3687 228.633 44.4217 231.613L43.8477 233.603L42.4072 232.168C42.9112 230.528 43.4567 228.923 44.1857 227.368C50.5317 213.853 84.5157 201.963 98.8307 196.758Z" fill="#AEADAD"/>
<path d="M277.53 342.308L278.35 339.103C279.59 342.003 286.53 344.808 289.8 346.433L289.93 346.948L289.965 346.573L289.215 347.378L289.785 347.598C291.66 348.338 292.03 348.373 293.455 349.688C296.215 350.708 300.775 351.918 302.985 353.248C301.275 353.378 299.945 353.248 298.62 354.248C292.09 358.783 265.525 358.803 257.17 357.118C254.22 356.298 243.75 354.328 245.26 350.068C246.555 346.413 254.34 342.918 257.81 341.573C262.72 339.663 265.075 338.438 270.01 340.503C271.69 341.318 275.32 342.948 276.715 343.918C277.415 343.098 277.18 343.408 277.53 342.308Z" fill="#6C6C6C"/>
<path d="M257.17 357.118C254.22 356.298 243.75 354.328 245.26 350.068C246.555 346.413 254.34 342.918 257.81 341.573C262.72 339.663 265.075 338.438 270.01 340.503C266.075 347.768 262.535 350.903 257.17 357.118Z" fill="#A6A5A5"/>
<path d="M277.53 342.308L278.35 339.103C279.59 342.003 286.53 344.808 289.8 346.433L289.93 346.948L289.965 346.573L289.215 347.378L289.785 347.598C291.66 348.338 292.03 348.373 293.455 349.688C296.215 350.708 300.775 351.918 302.985 353.248C301.275 353.378 299.945 353.248 298.62 354.248C295.08 353.363 278.98 346.388 276.715 343.918C277.415 343.098 277.18 343.408 277.53 342.308Z" fill="#101010"/>
<path d="M277.53 342.308L278.35 339.103C279.59 342.003 286.53 344.808 289.8 346.433L289.93 346.948L289.965 346.573L289.215 347.378L289.785 347.598C291.66 348.338 292.03 348.373 293.455 349.688C289.315 348.338 280.205 345.833 277.53 342.308Z" fill="#484848"/>
</svg>
